<svg width="111" height="71" viewBox="0 0 111 71" fill="none" xmlns="http://www.w3.org/2000/svg">
<path d="M87.9408 56.0276C87.9408 56.6449 84.3038 58.4445 79.9837 58.4445C75.6635 58.4445 72.2973 56.6449 72.2973 56.0276C72.2973 55.4103 75.7989 55.6091 80.1233 55.6091C84.4477 55.6091 87.9408 55.4093 87.9408 56.0276Z" fill="#504F60"/>
<path opacity="0.2" d="M87.9408 56.0276C87.9408 56.6449 84.3038 58.4446 79.9837 58.4446C75.6635 58.4446 72.2973 56.6449 72.2973 56.0276" fill="black"/>
<path d="M44.4336 44.7005C45.1348 44.7895 45.8624 44.846 46.5339 44.6304C46.6397 44.598 46.756 44.5258 46.7454 44.4212C46.7379 44.3832 46.7216 44.3474 46.6979 44.3166C46.4447 43.9409 46.232 43.5401 46.0633 43.1206C46.0566 43.0987 46.0429 43.0796 46.0242 43.0662C46.0023 43.0584 45.9784 43.0584 45.9565 43.0662C45.6466 43.1468 45.3791 43.3445 45.0713 43.4293C44.9144 43.4719 44.7506 43.484 44.5891 43.4649C44.4495 43.4492 44.2591 43.3351 44.1322 43.3498C44.2041 43.807 44.3797 44.2339 44.4336 44.7005Z" fill="#FFF980"/>
<path d="M57.6945 43.5423C58.1566 43.2284 58.6357 42.8989 58.9086 42.4144C58.928 42.3854 58.9394 42.3518 58.9413 42.3171C58.9367 42.2829 58.9232 42.2505 58.9022 42.2229C58.6423 41.8142 58.3077 41.4568 57.9155 41.1693C57.7109 41.3123 57.526 41.4812 57.3656 41.6715C57.2492 41.7929 56.9277 41.9854 56.9246 42.1706C56.9246 42.2753 57.0472 42.3966 57.1043 42.4845C57.1816 42.5975 57.2545 42.7126 57.3243 42.8298C57.3645 42.8873 57.7315 43.5193 57.6945 43.5423Z" fill="#FFF980"/>
<path d="M47.1822 46.1015C47.1905 46.2093 47.1606 46.3166 47.0976 46.4049C47.0483 46.454 46.9872 46.49 46.92 46.5095C45.9396 46.8569 44.8048 46.4238 43.8266 46.7659C43.6257 46.836 43.4353 46.9375 43.2333 47.0044C42.9925 47.0761 42.744 47.1196 42.493 47.1342C42.1472 47.1666 41.7992 47.1875 41.4524 47.197C41.1888 47.2154 40.9239 47.1925 40.6676 47.129C40.5395 47.0965 40.4197 47.0377 40.316 46.9564C40.2123 46.8751 40.1271 46.7731 40.0659 46.6571C40.0127 46.5531 40.0021 46.4328 40.0363 46.3212C40.0516 46.283 40.0734 46.2476 40.1008 46.2166C40.1671 46.143 40.2449 46.0805 40.3313 46.0314L40.692 45.8012C40.8611 45.6829 41.0448 45.5865 41.2387 45.5145C41.3815 45.4685 41.5327 45.4486 41.6776 45.4099C42.1842 45.2634 42.5713 44.8658 42.9308 44.4839L43.4215 43.966C43.4674 43.909 43.5256 43.8629 43.5918 43.831C43.6599 43.8086 43.7322 43.8018 43.8033 43.8111C44.28 43.8448 44.7403 43.9974 45.1411 44.2548C45.2436 44.3308 45.3543 44.3954 45.4711 44.4473C45.7588 44.5582 46.1279 44.4745 46.3933 44.3343C46.5192 44.2673 46.4917 44.2297 46.5445 44.1104C46.5974 43.9911 46.7264 43.9147 46.8385 44.0235C46.8724 44.0612 46.8963 44.1064 46.9083 44.1554C47.0141 44.5006 46.9739 44.8721 46.9739 45.2341C46.9708 45.2907 46.978 45.3474 46.9951 45.4015C47.022 45.4561 47.0543 45.5079 47.0913 45.5564C47.0988 45.5692 47.1055 45.5825 47.1114 45.5961C47.1761 45.7564 47.2004 45.9298 47.1822 46.1015Z" fill="#514E7F"/>
<path d="M47.1823 46.1015C47.1905 46.2093 47.1606 46.3166 47.0976 46.4049C47.0483 46.454 46.9872 46.49 46.92 46.5096C45.9396 46.8569 44.8048 46.4238 43.8266 46.7659C43.6257 46.836 43.4353 46.9375 43.2333 47.0044C42.9925 47.0761 42.744 47.1196 42.493 47.1342C42.1472 47.1666 41.7992 47.1875 41.4524 47.197C41.1888 47.2154 40.924 47.1925 40.6676 47.129C40.5395 47.0965 40.4197 47.0377 40.316 46.9564C40.2123 46.8751 40.1271 46.7731 40.0659 46.6571C40.0127 46.5531 40.0021 46.4328 40.0363 46.3212C40.0516 46.283 40.0734 46.2476 40.1008 46.2166C40.1579 46.3348 40.1991 46.4918 40.2351 46.5483C40.2837 46.632 40.3497 46.7045 40.4289 46.761C40.508 46.8175 40.5984 46.8566 40.6941 46.8758C40.8372 46.8844 40.9808 46.8663 41.1171 46.8224C42.0055 46.6048 42.9499 46.6016 43.8033 46.272C44.0963 46.158 44.3755 46.0063 44.6832 45.9372C44.991 45.8682 45.3178 45.887 45.635 45.8609C46.1363 45.8211 46.6217 45.6715 47.1156 45.593C47.1794 45.7546 47.2023 45.9292 47.1823 46.1015Z" fill="#464353"/>
<path d="M59.9397 43.4785C59.8932 43.8468 59.6573 44.1638 59.3982 44.4327C59.1391 44.7016 58.8462 44.9433 58.6399 45.253C58.3861 45.6369 58.2719 46.113 57.942 46.4374C57.8153 46.5553 57.673 46.6556 57.5189 46.7355C57.3464 46.8363 57.1639 46.9194 56.9743 46.9835C56.4814 47.1394 55.9505 47.1038 55.4355 47.0662C55.2683 47.0646 55.1028 47.033 54.9469 46.9731C54.876 46.9374 54.8081 46.8961 54.7439 46.8496C54.6148 46.7709 54.5061 46.6634 54.4266 46.5357C54.3876 46.4663 54.3766 46.3848 54.3959 46.3076C54.4254 46.2227 54.4759 46.1464 54.5429 46.0858C54.6588 45.9666 54.7832 45.8557 54.9152 45.7541C55.0962 45.6385 55.2594 45.4976 55.3996 45.3356C55.4855 45.2077 55.5488 45.0661 55.5867 44.9171C55.6617 44.656 55.7074 44.3876 55.7232 44.1167C55.7226 43.9367 55.7414 43.7571 55.7792 43.581C55.8575 43.3048 56.0648 43.0579 56.0415 42.7722C56.0321 42.7313 56.0358 42.6885 56.0521 42.6498C56.0767 42.6195 56.111 42.5985 56.1494 42.5902C56.311 42.5264 56.4814 42.4873 56.6549 42.474C56.7419 42.4681 56.8292 42.4813 56.9104 42.5128C56.9916 42.5443 57.0647 42.5932 57.1244 42.6561C57.1964 42.7419 57.244 42.8653 57.3497 42.8988C57.4021 42.913 57.4571 42.9151 57.5105 42.9051C57.7706 42.8789 58.0456 42.8465 58.2508 42.6802C58.3456 42.596 58.4218 42.4933 58.4746 42.3786C58.5274 42.2639 58.5556 42.1397 58.5575 42.0137C58.5575 41.9185 58.5141 41.8191 58.6632 41.8044C58.7753 41.7898 58.8641 41.909 58.9213 41.9823C59.1275 42.2554 59.339 42.541 59.4162 42.8737C59.4462 42.8622 59.4781 42.8562 59.5103 42.8559C59.5763 42.8554 59.6414 42.8706 59.7002 42.9003C59.7589 42.9299 59.8095 42.9733 59.8477 43.0265C59.9319 43.1614 59.9645 43.3218 59.9397 43.4785Z" fill="#514E7F"/>
<path d="M59.9396 43.4785C59.8931 43.8468 59.6572 44.1638 59.3981 44.4327C59.139 44.7016 58.8461 44.9433 58.6399 45.253C58.3861 45.637 58.2719 46.113 57.9419 46.4374C57.8152 46.5553 57.6729 46.6557 57.5189 46.7356C57.3463 46.8363 57.1638 46.9194 56.9742 46.9836C56.4814 47.1395 55.9505 47.1039 55.4355 47.0662C55.2683 47.0646 55.1027 47.0331 54.9469 46.9731C54.876 46.9374 54.808 46.8961 54.7438 46.8496C54.6147 46.771 54.5061 46.6635 54.4266 46.5357C54.5257 46.4886 54.6339 46.4629 54.7438 46.4604C54.9723 46.473 55.1394 46.6864 55.3583 46.7523C55.6703 46.8454 55.9812 46.6278 56.2974 46.5535C56.5036 46.5054 56.7204 46.5179 56.9245 46.4489C57.0946 46.3839 57.2518 46.2896 57.3888 46.1706C57.5766 46.0377 57.7437 45.8784 57.8848 45.6977C58.002 45.5169 58.0995 45.3243 58.1756 45.1232C58.3426 44.7378 58.5392 44.3657 58.7636 44.01C58.7968 43.9537 58.837 43.9017 58.8831 43.8551C58.9328 43.8101 58.9889 43.7788 59.0449 43.739C59.2564 43.581 59.3442 43.3205 59.4182 43.0652C59.4383 42.9876 59.4663 42.9122 59.5018 42.8402C59.5678 42.8397 59.6329 42.8549 59.6916 42.8846C59.7504 42.9143 59.801 42.9576 59.8392 43.0108C59.9301 43.1489 59.966 43.3156 59.9396 43.4785Z" fill="#464353"/>
<path d="M37.7636 10.8573C38.0268 11.0525 38.2434 11.3025 38.3981 11.5897C38.5462 11.8764 39.3996 14.1008 39.3499 14.4241C39.6281 14.1468 40.7248 14.1019 41.0061 13.8246C41.1235 13.7084 41.7569 13.1288 41.8521 12.9938C41.9473 12.8589 42.6538 12.5753 42.731 12.433C43.0197 11.9214 40.6835 9.98262 40.9828 9.47727C40.9994 9.45405 41.0079 9.42615 41.0071 9.39775C41.0003 9.3739 40.9867 9.35247 40.968 9.33602C40.7766 9.14245 40.5228 9.02213 40.2922 8.87879C40.0617 8.73545 39.8396 8.53561 39.7772 8.27194C39.5573 8.37207 39.3555 8.50708 39.1797 8.67162C38.751 9.03503 38.3297 9.40577 37.9159 9.78383C37.7541 9.9324 37.441 10.1301 37.3659 10.3425C37.2771 10.5706 37.6092 10.7328 37.7636 10.8573Z" fill="#A1616A"/>
<path d="M41.5454 10.0339C41.187 10.2722 40.852 10.5433 40.5449 10.8437C40.2552 11.1273 39.9802 11.4558 39.9104 11.8524C39.8808 12.0082 39.885 12.1662 39.8607 12.3242C39.7549 13.0095 39.1564 13.5118 38.892 14.1531C38.8154 14.3511 38.759 14.5561 38.7238 14.7652C38.6495 15.1615 38.6088 15.5633 38.6022 15.9664C38.5958 16.3566 38.9829 16.6255 39.1246 16.9896C39.2663 17.3537 39.3044 17.7283 39.3763 18.1018C39.5117 18.807 39.7602 19.4871 40.0109 20.163C40.5323 21.5881 42.2222 25.5273 42.7436 26.9534C44.3416 26.5569 48.5952 25.6456 50.0102 24.8096C50.4819 24.5313 46.737 21.3913 47.2415 21.1748C47.2703 21.1703 47.2977 21.1593 47.3215 21.1426C47.3453 21.1259 47.3648 21.1039 47.3786 21.0785C47.3923 21.053 47.3999 21.0247 47.4007 20.9958C47.4015 20.967 47.3955 20.9383 47.3832 20.9122C46.8787 18.7296 45.3008 16.9363 44.5849 14.8113C44.3363 14.0736 43.89 13.4438 43.5516 12.7427C43.2449 12.1076 43.081 11.4056 42.714 10.8019C42.6448 10.6775 42.5543 10.566 42.4465 10.4723C42.3549 10.4029 42.256 10.3436 42.1514 10.2955C41.942 10.195 41.7474 10.1354 41.5454 10.0339Z" fill="#514E7F"/>
<path d="M37.8482 10.6093C39.2295 10.6093 40.3493 9.50147 40.3493 8.13486C40.3493 6.76826 39.2295 5.6604 37.8482 5.6604C36.4668 5.6604 35.347 6.76826 35.347 8.13486C35.347 9.50147 36.4668 10.6093 37.8482 10.6093Z" fill="#A1616A"/>
<path d="M40.3927 9.2973C40.5174 9.18355 40.6739 9.10986 40.8418 9.08595C41.0096 9.06204 41.1809 9.08904 41.3329 9.16337C41.5021 9.25021 41.6501 9.42599 41.6121 9.61014L42.8526 9.62897C43.05 9.62362 43.2474 9.64154 43.4406 9.68233C43.635 9.72421 43.8086 9.83188 43.9313 9.9868C43.9461 10.0067 43.963 10.0307 43.9884 10.0339C44.0091 10.0342 44.0292 10.0276 44.0455 10.015C44.2364 9.92036 44.4513 9.88394 44.6632 9.91042C45.3336 9.95332 45.9534 10.285 46.479 10.6993C46.5738 10.7638 46.6473 10.8544 46.6905 10.9598C46.7339 11.099 46.682 11.2737 46.7963 11.3731C46.7963 12.524 47.196 13.5996 47.4625 14.7212C47.5101 14.9211 47.7037 15.0979 47.838 15.2549C48.0039 15.4288 48.1394 15.629 48.2388 15.8471C48.4651 16.4288 48.1531 17.1131 48.3731 17.6969C48.4662 17.9438 48.6459 18.1468 48.7961 18.3613C48.9941 18.609 49.1192 18.9058 49.1578 19.2192C49.1673 19.3594 49.1493 19.5007 49.1578 19.6378C49.172 19.8263 49.2075 20.0126 49.2636 20.1933C49.3538 20.5309 49.4483 20.8682 49.547 21.2051C49.7077 21.7492 49.9171 22.3361 50.41 22.626C49.2202 22.8258 47.9659 23.0214 46.8322 22.6123C46.6741 22.559 46.524 22.4847 46.3859 22.3916C45.9766 22.1028 45.7789 21.609 45.6023 21.1423C45.4056 20.6192 45.2057 20.0866 45.1655 19.53C45.1659 19.353 45.1406 19.1768 45.0904 19.0068C44.9751 18.7034 44.6674 18.5203 44.3882 18.3519C44.0729 18.181 43.7873 17.9612 43.5421 17.7011C43.4205 17.57 43.3273 17.4157 43.2684 17.2476C43.2094 17.0795 43.186 16.9013 43.1995 16.7238C43.2206 16.5512 43.2894 16.3848 43.2957 16.2112C43.3021 16.0375 43.2238 15.8387 43.0556 15.7926C42.1895 15.5332 41.776 14.5183 41.5835 13.6436C41.5005 13.1915 41.4633 12.7323 41.4725 12.2729L41.4608 11.3805C41.3413 11.2729 41.2452 11.1423 41.1783 10.9968C41.1114 10.8513 41.0751 10.6938 41.0717 10.534C41.0831 10.4408 41.0814 10.3464 41.0664 10.2536C41.0245 10.1402 40.9564 10.0381 40.8675 9.95541C40.6763 9.76124 40.5162 9.53931 40.3927 9.2973Z" fill="#464353"/>
<path d="M37.7287 12.1265C37.7001 12.4027 37.7636 12.6862 37.7012 12.9572C37.6768 13.0618 37.6345 13.1665 37.6039 13.2638C37.5101 13.6538 37.5507 14.0637 37.7191 14.4283C37.8874 14.7893 38.0888 15.1343 38.3209 15.4589C38.3994 15.5697 38.464 15.6895 38.5134 15.8157C38.5534 15.9482 38.5782 16.0847 38.5874 16.2227C38.6487 16.7767 38.7469 17.3262 38.8814 17.8674C38.9999 18.3362 40.3451 22.3434 40.6581 22.7149C40.7149 22.7971 40.8011 22.8551 40.8993 22.8771C40.9701 22.8797 41.0405 22.8653 41.1044 22.8352L41.739 22.5946C41.7929 22.5782 41.8429 22.5512 41.886 22.515C41.9454 22.4463 41.9777 22.3586 41.9769 22.2681C42.0224 21.7575 40.674 17.722 40.5027 17.2397C39.9845 15.7832 39.2949 14.3791 38.9576 12.8714C38.8634 12.4529 38.8137 11.8084 38.5039 11.4746C38.3759 11.3365 38.4193 11.3951 38.2659 11.4673C38.1884 11.5006 38.1135 11.5394 38.0417 11.5834C37.9519 11.6452 37.8772 11.726 37.8231 11.8199C37.7689 11.9139 37.7367 12.0186 37.7287 12.1265Z" fill="#464353"/>
<path d="M39.6545 14.8897C39.8248 15.7801 40.0003 16.6684 40.1748 17.5588L42.658 16.9153C42.6781 16.6579 42.5396 16.4194 42.4465 16.1829C42.2202 15.6211 42.2149 14.9954 42.0319 14.4178C41.8934 13.9784 41.6523 13.5745 41.5222 13.1319C41.4471 12.8746 41.409 12.6088 41.335 12.3483C41.2556 12.0924 41.158 11.8424 41.0431 11.6002C40.9037 11.2488 40.7219 10.9154 40.5016 10.6073C40.1843 10.7244 39.8459 10.8605 39.6651 11.144C39.5723 11.3038 39.5194 11.4831 39.5107 11.6671C39.4673 12.2185 39.6693 12.7731 39.6027 13.3213C39.5341 13.8434 39.5516 14.3731 39.6545 14.8897Z" fill="#FFF980"/>
<path d="M42.6992 26.7337C42.8388 27.2568 42.6368 27.8072 42.4718 28.3251C42.2234 29.1052 42.0541 29.9078 41.9663 30.7211C41.9556 30.928 41.9135 31.1322 41.8415 31.3269C41.7633 31.5016 41.63 31.6491 41.5391 31.8155C41.2895 32.2528 41.2958 32.7864 41.3498 33.2866C41.3857 33.6161 41.4397 33.9447 41.5063 34.269C41.5877 34.6656 41.6882 35.0799 41.5708 35.467C41.7675 35.4241 41.9008 35.6763 41.8881 35.874C41.8754 36.0718 41.8109 36.2925 41.9071 36.4631C42.1503 36.551 42.1525 36.8816 42.145 37.1379C42.1491 37.5824 42.2059 38.0249 42.3143 38.4563C42.6823 40.2071 43.0729 41.953 43.486 43.694C44.3797 43.9681 45.4235 44.2537 46.2759 43.8739C46.4345 43.8038 46.5932 43.6919 46.6291 43.5224C46.6384 43.431 46.6269 43.3388 46.5953 43.2524L46.1913 41.7981C46.0929 41.4466 45.9946 41.0835 46.0464 40.7225C46.0855 40.4536 46.204 40.1638 46.0707 39.9263C46.0253 39.8447 45.9533 39.7809 45.9005 39.7034C45.689 39.3969 45.8 38.9867 45.8169 38.6153C45.8235 38.5319 45.8178 38.448 45.8 38.3663C45.771 38.2708 45.7306 38.1791 45.6794 38.0932C45.3456 37.4519 45.1852 36.7361 45.2141 36.0153C45.2267 35.9233 45.214 35.8297 45.1771 35.7443C45.1514 35.7091 45.1285 35.672 45.1084 35.6334C45.0926 35.5662 45.1004 35.4957 45.1306 35.4335C45.0094 35.3426 44.9 35.2371 44.8048 35.1197C44.8635 35.0836 44.9131 35.0348 44.9499 34.977C44.9867 34.9191 45.0097 34.8538 45.0173 34.7859C45.0248 34.718 45.0167 34.6492 44.9934 34.5849C44.9702 34.5205 44.9324 34.4623 44.8831 34.4145C44.9262 34.4059 44.9661 34.3856 44.9983 34.3559C45.0305 34.3263 45.0537 34.2884 45.0655 34.2464C45.0772 34.2045 45.0769 34.1601 45.0647 34.1183C45.0525 34.0765 45.0288 34.0388 44.9962 34.0095C44.9444 33.974 44.8757 33.9583 44.8387 33.9049C44.7816 33.8275 44.8281 33.7197 44.8746 33.6371L45.121 33.1966C45.3051 32.8691 45.3463 32.4642 45.5441 32.1503C45.8275 31.6931 46.0126 31.1835 46.1955 30.6792L46.9073 28.7363L47.3864 29.1474C47.5459 29.2681 47.6797 29.4189 47.7798 29.5911C47.8479 29.7613 47.891 29.9403 47.9077 30.1226C48.0833 31.1772 48.7538 32.0917 49.0023 33.1307C49.0573 33.3619 49.0943 33.6046 49.2286 33.8024C49.2767 33.8631 49.3198 33.9275 49.3577 33.9949C49.3927 34.0978 49.4109 34.2055 49.4116 34.314C49.4338 34.5265 49.5019 34.7318 49.6114 34.916C49.7209 35.1001 49.8692 35.2588 50.0461 35.3812C50.282 35.5413 50.5749 35.6512 50.7029 35.9044C50.7285 35.9828 50.764 36.0577 50.8086 36.1272C50.9229 36.2632 51.1693 36.2789 51.2179 36.4495C51.2454 36.5447 51.1946 36.6587 51.2486 36.7424C51.2792 36.7812 51.3197 36.8112 51.366 36.8293L52.0545 37.1693C52.8244 37.5502 53.2178 38.4249 53.7857 39.0621C53.9818 39.2696 54.1555 39.4968 54.3039 39.7401C54.5493 40.1743 54.6624 40.7194 55.077 40.9956C55.1884 41.0528 55.2898 41.1273 55.3773 41.2164C55.5074 41.3859 55.4598 41.6234 55.4714 41.8368C55.4831 42.0503 55.6481 42.3045 55.8532 42.2396C55.7813 42.4982 55.7813 42.7711 55.8532 43.0296C56.754 42.9838 57.6129 42.6396 58.292 42.0524C58.4929 41.8787 58.6865 41.6569 58.6886 41.3932C58.6917 41.3477 58.6814 41.3023 58.659 41.2624C58.6183 41.2109 58.5647 41.1709 58.5035 41.1463C57.8594 40.801 57.6659 40.0006 57.3402 39.3508C57.0557 38.7775 56.6348 38.2836 56.2826 37.7511C55.5169 36.6054 54.9945 35.2191 53.8365 34.4626C53.5816 34.2962 53.2855 34.1487 53.1575 33.8735C53.0866 33.7197 53.0782 33.5439 53.0221 33.3849C52.9661 33.2259 52.8318 33.071 52.6604 33.071C52.7556 32.8408 52.7366 32.5604 52.7429 32.3114C52.7494 32.2009 52.7366 32.0901 52.7049 31.9839C52.6609 31.8697 52.6037 31.7609 52.5346 31.6596C52.2324 31.1535 52.0814 30.5731 52.0989 29.9855C52.1073 29.6832 52.1613 29.3714 52.0693 29.0826C52.0227 28.9371 51.9413 28.8043 51.8852 28.6641C51.8008 28.41 51.7562 28.1447 51.753 27.8773L51.6896 26.8718C51.68 26.5369 51.6361 26.2039 51.5585 25.8778C51.3469 25.0973 51.1354 21.8276 50.411 21.4593C49.6866 21.091 48.4418 23.6074 47.6264 23.6565C47.2657 23.6714 46.9092 23.7395 46.5689 23.8585C46.0263 24.0594 45.5716 24.4339 45.1284 24.8001L43.6288 26.0463C43.3115 26.3047 43.0493 26.5516 42.6992 26.7337Z" fill="#464353"/>
<path d="M35.5014 5.38732C35.8314 4.9416 36.3982 4.70514 36.9566 4.68526C37.515 4.66538 38.0649 4.83907 38.5652 5.08495C38.7128 5.16801 38.8706 5.23201 39.0347 5.27537C39.2991 5.32873 39.5931 5.25758 39.8321 5.38C40.1494 5.54636 40.2107 5.9701 40.1833 6.32166C40.1558 6.67321 40.0891 7.06347 40.2784 7.36794C40.3456 7.45478 40.4067 7.54601 40.4614 7.64102C40.5428 7.82203 40.4952 8.03129 40.4466 8.22276C40.3228 8.11813 40.253 7.96014 40.1431 7.83877C40.0331 7.7174 39.8417 7.63579 39.7052 7.72682C39.5688 7.81785 39.5709 7.98316 39.5635 8.13173C39.5561 8.28031 39.518 8.45818 39.3763 8.5063C39.3171 8.51963 39.2553 8.51509 39.1987 8.49327C39.1421 8.47144 39.0935 8.43334 39.0591 8.38389C38.8169 8.09093 38.9142 7.62324 38.6741 7.32819C38.5377 7.16078 38.3103 7.07917 38.1844 6.90339C38.085 6.76528 38.0597 6.58951 37.9729 6.44093C37.8862 6.29236 37.6842 6.18355 37.5499 6.28608C37.5041 6.32941 37.4658 6.37997 37.4368 6.4357C37.353 6.55439 37.2312 6.64167 37.0911 6.68343C36.9511 6.7252 36.8008 6.71902 36.6647 6.66589C36.5607 6.60272 36.4482 6.55446 36.3305 6.52255C36.2535 6.51873 36.1769 6.5363 36.1095 6.57328C36.042 6.61026 35.9863 6.66517 35.9488 6.7318C35.8729 6.86493 35.8362 7.01645 35.843 7.16915C35.843 7.37841 35.8811 7.60127 35.7605 7.76867C35.7147 7.83169 35.6573 7.88564 35.5913 7.92771C35.4147 8.03966 35.1683 8.11499 35.0054 7.98735C34.9502 7.93648 34.9091 7.87242 34.8862 7.80133C34.8632 7.73024 34.8591 7.6545 34.8743 7.58139C34.906 7.43576 34.9477 7.29243 34.9991 7.15241C35.0921 6.82806 34.9705 6.46291 35.072 6.15739C35.1784 5.88225 35.3229 5.62307 35.5014 5.38732Z" fill="#464353"/>
<path d="M36.8414 12.7689C36.8255 12.8452 36.8336 12.9244 36.8646 12.9959C36.8961 13.0447 36.9389 13.0852 36.9894 13.1142C37.3451 13.3334 37.7496 13.4631 38.1675 13.4919C38.2244 13.4929 38.2802 13.5072 38.3304 13.5337C38.4298 13.5986 38.4362 13.743 38.3992 13.8581C38.3498 13.9667 38.3242 14.0843 38.3241 14.2034C38.3547 14.422 38.617 14.5173 38.838 14.5497C39.1479 14.5884 39.4874 14.5685 39.7327 14.377C39.8989 14.2271 40.0256 14.0392 40.1018 13.8298C40.7089 12.4498 40.9214 10.9243 41.5359 9.54843C41.5825 9.45859 41.6135 9.3617 41.6279 9.26175C41.6344 9.21171 41.6272 9.16087 41.6071 9.11451C41.5871 9.06814 41.5548 9.02794 41.5137 8.99808C41.3995 8.92798 41.2218 8.96774 41.1446 8.85788C41.1065 8.80243 41.1108 8.7271 41.0769 8.6685C41.0061 8.54399 40.8199 8.56387 40.693 8.49168C40.5936 8.43937 40.5249 8.3316 40.4138 8.31067C40.3593 8.30763 40.3048 8.3172 40.2547 8.33863C40.2046 8.36006 40.1602 8.39276 40.1251 8.43413C39.7645 8.76685 39.5752 9.23873 39.3742 9.68445C39.0674 10.3677 38.7082 11.0267 38.2997 11.6557C38.3473 11.5824 38.0713 11.0279 37.9634 11.0038C37.7741 10.9662 37.5319 11.2947 37.4294 11.4171C37.1074 11.8032 36.9035 12.2722 36.8414 12.7689Z" fill="#FFF980"/>
<path opacity="0.1" d="M40.6835 8.58897C40.6076 8.59023 40.5328 8.60837 40.4649 8.64205C40.397 8.67574 40.3376 8.72411 40.2912 8.78358C40.178 8.92902 40.1558 9.12153 40.1272 9.30673C40.031 9.89345 39.8193 10.4558 39.5043 10.962" fill="black"/>
<path opacity="0.1" d="M41.2229 9.00645C41.118 9.00877 41.0156 9.03806 40.9256 9.09144C40.8357 9.14483 40.7613 9.22048 40.7099 9.31092C40.6399 9.4755 40.5964 9.6499 40.5809 9.82779C40.4902 10.2222 40.3154 10.5928 40.068 10.9149" fill="black"/>
<path d="M66.357 29.4613V28.1619C66.3567 27.2052 65.9724 26.2879 65.2886 25.6116C64.6048 24.9353 63.6774 24.5553 62.7105 24.5553H10.838C9.87103 24.5553 8.94369 24.9353 8.25987 25.6116C7.57605 26.2879 7.19175 27.2052 7.19147 28.1619V30.5578L66.357 29.4613Z" fill="#33323D"/>
<path d="M25.2685 23.0319C25.2685 23.0319 25.1204 32.12 26.7491 35.1103C28.3777 38.1006 29.0757 51.1091 29.0757 51.1091C29.0757 51.1091 46.149 52.8564 58.0467 49.0165C69.9443 45.1766 95.2603 43.6061 95.2603 43.6061L90.9941 15.1586C90.9941 15.1586 69.9178 13.8215 57.9282 19.4787C45.9386 25.136 25.2685 23.0319 25.2685 23.0319Z" fill="#8DD070"/>
<path opacity="0.1" d="M25.2685 23.0319C25.2685 23.0319 25.1204 32.12 26.7491 35.1103C28.3777 38.1006 29.0757 51.1091 29.0757 51.1091C29.0757 51.1091 46.149 52.8564 58.0467 49.0165C69.9443 45.1766 95.2603 43.6061 95.2603 43.6061L90.9941 15.1586C90.9941 15.1586 69.9178 13.8215 57.9282 19.4787C45.9386 25.136 25.2685 23.0319 25.2685 23.0319Z" fill="black"/>
<path d="M29.0471 26.3518C29.0471 26.3518 28.513 33.8505 29.853 36.2465C31.1929 38.6425 31.2553 49.3387 31.2553 49.3387C31.2553 49.3387 46.6207 50.0439 57.5506 46.3631C68.4805 42.6822 91.4487 40.2946 91.4487 40.2946L88.8387 17.0304C88.8387 17.0304 69.8342 16.8369 58.7425 22.0181C47.6507 27.1993 29.0471 26.3518 29.0471 26.3518Z" fill="#8DD070"/>
<path opacity="0.1" d="M58.5737 42.1036C60.76 41.8342 62.0588 37.8552 61.4748 33.2162C60.8908 28.5773 58.645 25.0351 56.4587 25.3045C54.2725 25.5739 52.9736 29.5529 53.5577 34.1919C54.1417 38.8308 56.3875 42.373 58.5737 42.1036Z" fill="black"/>
<path opacity="0.2" d="M79.4391 1.30055C79.4391 1.30055 58.9636 6.42736 49.308 15.4516C39.6524 24.4758 19.326 28.7489 19.326 28.7489C19.326 28.7489 22.0037 37.4425 24.4806 39.7945C26.9574 42.1466 31.6551 54.317 31.6551 54.317C31.6551 54.317 48.4461 50.7952 58.5775 43.5256C68.709 36.256 92.3213 27.0748 92.3213 27.0748L79.4391 1.30055Z" fill="black"/>
<path d="M19.0182 27.4472C19.0182 27.4472 21.6949 36.1419 24.1696 38.4939C26.6443 40.846 31.3441 53.0154 31.3441 53.0154C31.3441 53.0154 48.1372 49.4946 58.2697 42.225C68.4023 34.9554 92.0124 25.7774 92.0124 25.7774L79.1302 0C79.1302 0 58.6558 5.12681 49.0002 14.151C39.3446 23.1753 19.0182 27.4472 19.0182 27.4472Z" fill="#8DD070"/>
<path opacity="0.1" d="M19.0182 27.4472C19.0182 27.4472 21.6949 36.1419 24.1696 38.4939C26.6443 40.846 31.3441 53.0154 31.3441 53.0154C31.3441 53.0154 48.1372 49.4946 58.2697 42.225C68.4023 34.9554 92.0124 25.7774 92.0124 25.7774L79.1302 0C79.1302 0 58.6558 5.12681 49.0002 14.151C39.3446 23.1753 19.0182 27.4472 19.0182 27.4472Z" fill="black"/>
<path d="M23.6409 29.4603C23.6409 29.4603 25.4588 36.7603 27.4777 38.6331C29.4966 40.506 32.8713 50.6654 32.8713 50.6654C32.8713 50.6654 47.7132 46.6707 56.9743 39.8489C66.2354 33.0271 87.3571 23.7915 87.3571 23.7915L77.6582 2.43472C77.6582 2.43472 59.5114 8.01876 50.5612 16.3179C41.611 24.6171 23.6409 29.4603 23.6409 29.4603Z" fill="#8DD070"/>
<path opacity="0.1" d="M56.6318 35.4878C58.6291 34.5677 58.6311 30.3864 56.6364 26.1485C54.6417 21.9107 51.4056 19.2211 49.4084 20.1413C47.4112 21.0614 47.4091 25.2427 49.4039 29.4806C51.3986 33.7184 54.6346 36.408 56.6318 35.4878Z" fill="black"/>
<path opacity="0.1" d="M67.7572 30.7368V66.8337C67.7572 67.2437 67.6755 67.6496 67.5169 68.0283C67.3583 68.4071 67.1258 68.7512 66.8328 69.041C66.5397 69.3309 66.1918 69.5607 65.809 69.7175C65.4261 69.8743 65.0157 69.9549 64.6014 69.9548H10.3482C9.51174 69.9545 8.7096 69.6256 8.1182 69.0403C7.52681 68.455 7.19458 67.6613 7.19458 66.8337V27.0978C8.7492 27.6691 8.7492 27.6691 10.3482 27.6209H64.6014C65.4372 27.6209 66.239 27.949 66.8306 28.5332C67.4222 29.1173 67.7555 29.9098 67.7572 30.7368Z" fill="black"/>
<path d="M67.7572 31.1961V67.293C67.7569 68.1208 67.4243 68.9147 66.8325 69.5C66.2407 70.0852 65.4382 70.414 64.6014 70.414H10.3482C9.51174 70.4137 8.7096 70.0848 8.1182 69.4995C7.52681 68.9142 7.19458 68.1205 7.19458 67.293V27.5561C8.7492 28.1263 8.7492 28.1263 10.3482 28.0792H64.6014C65.4374 28.0792 66.2393 28.4074 66.831 28.9918C67.4226 29.5762 67.7558 30.369 67.7572 31.1961Z" fill="#504F60"/>
<path opacity="0.1" d="M67.6029 44.5415V56.0851H56.2869C54.7532 56.0647 53.2893 55.4476 52.2121 54.3674C51.1348 53.2872 50.5308 51.8308 50.5308 50.3133C50.5308 48.7958 51.1348 47.3394 52.2121 46.2592C53.2893 45.179 54.7532 44.5619 56.2869 44.5415H67.6029Z" fill="black"/>
<path d="M67.7572 44.2339V55.7797H56.4412C54.9075 55.7593 53.4437 55.1422 52.3664 54.062C51.2892 52.9818 50.6852 51.5253 50.6852 50.0078C50.6852 48.4904 51.2892 47.0339 52.3664 45.9537C53.4437 44.8735 54.9075 44.2564 56.4412 44.236L67.7572 44.2339Z" fill="#33323D"/>
<path opacity="0.1" d="M56.9838 52.5644C58.2401 52.5644 59.2586 51.5568 59.2586 50.3139C59.2586 49.0709 58.2401 48.0633 56.9838 48.0633C55.7274 48.0633 54.7089 49.0709 54.7089 50.3139C54.7089 51.5568 55.7274 52.5644 56.9838 52.5644Z" fill="black"/>
<path d="M57.1382 52.2589C58.3945 52.2589 59.413 51.2513 59.413 50.0083C59.413 48.7654 58.3945 47.7578 57.1382 47.7578C55.8818 47.7578 54.8633 48.7654 54.8633 50.0083C54.8633 51.2513 55.8818 52.2589 57.1382 52.2589Z" fill="#FFF980"/>
<path d="M87.3994 44.1345C87.4893 45.0981 86.7522 46.0335 86.9668 46.9772C87.0134 47.1792 87.1012 47.3696 87.1329 47.5736C87.2217 48.1344 86.8844 48.6649 86.5618 49.1336L83.791 53.1556C83.68 53.3324 83.5471 53.4948 83.3954 53.639C82.8667 54.1056 82.0714 54.0575 81.3755 54.1966C80.8863 54.2949 80.4244 54.4969 80.0218 54.7888C80.0049 54.8031 79.9942 54.8231 79.9919 54.8449C79.9895 54.8667 79.9957 54.8886 80.0091 54.906C80.1241 55.061 80.2765 55.1849 80.4523 55.2666C80.6282 55.3483 80.822 55.3851 81.0159 55.3737C81.0889 55.4689 81.0159 55.6081 80.9101 55.6761C80.761 55.7807 80.5569 55.8058 80.5273 56.0548C80.5168 56.1418 80.5346 56.2297 80.5781 56.306C80.6897 56.4751 80.8634 56.5948 81.0624 56.6397C82.0217 56.9295 83.0581 56.42 83.7762 55.7263C84.4942 55.0326 85.0093 54.1569 85.7136 53.4506C86.1039 53.0604 86.547 52.7256 86.9489 52.3468C87.7505 51.5914 88.3734 50.6727 88.9752 49.7531C89.156 49.4758 89.3379 49.1912 89.4141 48.87C89.4902 48.5488 89.4542 48.2244 89.5399 47.9137C89.652 47.5056 89.9534 47.1813 90.2041 46.8391C90.6958 46.1695 91.0237 45.3503 90.9592 44.5258C90.8947 43.7013 90.3775 42.8863 89.5907 42.6059C89.3468 42.509 89.0778 42.4928 88.8239 42.5598C88.5014 42.6582 88.2634 42.9218 88.0434 43.174L87.5147 43.7756C87.3828 43.9076 87.2786 44.064 87.208 44.236C87.1741 44.3223 87.1661 44.4164 87.1848 44.5072C87.2036 44.5979 87.2483 44.6814 87.3137 44.7476" fill="#FBBEBE"/>
<path opacity="0.05" d="M87.3994 44.1345C87.4893 45.0981 86.7522 46.0335 86.9668 46.9772C87.0134 47.1792 87.1012 47.3696 87.1329 47.5736C87.2217 48.1344 86.8844 48.6649 86.5618 49.1336L83.791 53.1556C83.68 53.3324 83.5471 53.4948 83.3954 53.639C82.8667 54.1056 82.0714 54.0575 81.3755 54.1966C80.8863 54.2949 80.4244 54.4969 80.0218 54.7888C80.0049 54.8031 79.9942 54.8231 79.9919 54.8449C79.9895 54.8667 79.9957 54.8886 80.0091 54.906C80.1241 55.061 80.2765 55.1849 80.4523 55.2666C80.6282 55.3483 80.822 55.3851 81.0159 55.3737C81.0889 55.4689 81.0159 55.6081 80.9101 55.6761C80.761 55.7807 80.5569 55.8058 80.5273 56.0548C80.5168 56.1418 80.5346 56.2297 80.5781 56.306C80.6897 56.4751 80.8634 56.5948 81.0624 56.6397C82.0217 56.9295 83.0581 56.42 83.7762 55.7263C84.4942 55.0326 85.0093 54.1569 85.7136 53.4506C86.1039 53.0604 86.547 52.7256 86.9489 52.3468C87.7505 51.5914 88.3734 50.6727 88.9752 49.7531C89.156 49.4758 89.3379 49.1912 89.4141 48.87C89.4902 48.5488 89.4542 48.2244 89.5399 47.9137C89.652 47.5056 89.9534 47.1813 90.2041 46.8391C90.6958 46.1695 91.0237 45.3503 90.9592 44.5258C90.8947 43.7013 90.3775 42.8863 89.5907 42.6059C89.3468 42.509 89.0778 42.4928 88.8239 42.5598C88.5014 42.6582 88.2634 42.9218 88.0434 43.174L87.5147 43.7756C87.3828 43.9076 87.2786 44.064 87.208 44.236C87.1741 44.3223 87.1661 44.4164 87.1848 44.5072C87.2036 44.5979 87.2483 44.6814 87.3137 44.7476" fill="black"/>
<path d="M89.4965 68.942C88.8916 69.3071 88.1375 69.3291 87.4343 69.2443C87.3211 69.2307 87.1868 69.2224 87.117 69.3092C87.0112 69.4347 87.136 69.6231 87.265 69.7204C87.6799 70.0285 88.1672 70.2269 88.6811 70.2969C89.14 70.3613 89.6031 70.3917 90.0665 70.3879C91.3356 70.4099 92.6047 70.4308 93.8537 70.2509C93.9277 70.2453 93.9997 70.2247 94.0652 70.1902C94.1457 70.1342 94.2017 70.0501 94.2217 69.9548C94.3074 69.6325 94.1424 69.2872 93.8928 69.0633C93.6432 68.8394 93.3228 68.7149 93.0097 68.5946L91.9099 68.1708C91.6518 68.0714 91.2383 67.8078 90.9581 67.8287C90.4314 67.8664 89.9333 68.6888 89.4965 68.942Z" fill="#3F3D56"/>
<path opacity="0.05" d="M89.4965 68.942C88.8916 69.3071 88.1375 69.3291 87.4343 69.2443C87.3211 69.2307 87.1868 69.2224 87.117 69.3092C87.0112 69.4347 87.136 69.6231 87.265 69.7204C87.6799 70.0285 88.1672 70.2269 88.6811 70.2969C89.14 70.3613 89.6031 70.3917 90.0665 70.3879C91.3356 70.4099 92.6047 70.4308 93.8537 70.2509C93.9277 70.2453 93.9997 70.2247 94.0652 70.1902C94.1457 70.1342 94.2017 70.0501 94.2217 69.9548C94.3074 69.6325 94.1424 69.2872 93.8928 69.0633C93.6432 68.8394 93.3228 68.7149 93.0097 68.5946L91.9099 68.1708C91.6518 68.0714 91.2383 67.8078 90.9581 67.8287C90.4314 67.8664 89.9333 68.6888 89.4965 68.942Z" fill="black"/>
<path d="M90.2675 54.4969C89.8096 55.0996 89.3358 55.7953 89.449 56.5413C89.5103 56.9431 89.7377 57.2978 89.9048 57.6692C90.1311 58.1736 90.2495 58.7155 90.3659 59.2554C90.5372 60.0443 90.7096 60.8353 90.8143 61.6368C90.9338 62.5418 90.3722 65.1607 90.3204 66.072C90.3077 66.2917 90.2813 66.5292 90.1268 66.6872C90.0666 66.75 89.9862 66.8002 89.9587 66.8818C89.9426 66.9605 89.9557 67.0422 89.9957 67.112C90.2538 67.6875 90.7815 68.1164 91.3705 68.3613C91.9596 68.6061 93.3799 69.0288 94.0219 69.0508C94.1065 69.06 94.1921 69.0489 94.2714 69.0184C94.3568 68.9668 94.4241 68.8904 94.4639 68.7997C94.924 67.9292 94.4819 64.8342 94.4882 63.8518C94.4946 63.0325 94.6902 62.2185 94.6543 61.4003C94.6247 60.7432 94.4428 60.1008 94.3825 59.4458C94.2767 58.3724 94.4755 57.2936 94.6754 56.2327C94.8277 55.4187 94.9811 54.6047 95.1767 53.8011C95.2962 53.3104 95.4348 52.8155 95.7055 52.3897C95.917 52.0517 96.2142 51.7692 96.4606 51.448C97.1445 50.5609 97.4484 49.4432 97.3066 48.3363C97.2918 48.2317 95.7203 48.7308 95.5818 48.7904C95.0165 49.0272 94.4964 49.3581 94.0441 49.7687C93.6803 50.1119 93.3937 50.5702 93.0753 50.9542C92.6248 51.4975 92.1799 52.0447 91.7407 52.5958C91.2394 53.2256 90.7483 53.8594 90.2675 54.4969Z" fill="#464353"/>
<path opacity="0.05" d="M90.2675 54.4603C89.8096 55.063 89.3358 55.7598 89.449 56.5047C89.5103 56.9076 89.7377 57.2623 89.9048 57.6337C90.1311 58.137 90.2495 58.68 90.3659 59.2188C90.5372 60.0088 90.7096 60.7998 90.8143 61.6002C90.9338 62.5062 90.3722 65.1241 90.3204 66.0354C90.3077 66.2551 90.2813 66.4937 90.1269 66.6516C90.0666 66.7134 89.9862 66.7636 89.9587 66.8452C89.9425 66.9238 89.9556 67.0056 89.9957 67.0754C90.2538 67.6519 90.7815 68.0798 91.3705 68.3309C91.9596 68.582 93.3799 68.8007 94.0219 68.8216C94.1065 68.8309 94.1921 68.8197 94.2715 68.7892C94.357 68.7383 94.4243 68.6622 94.4639 68.5716C94.924 67.7011 94.4819 64.8049 94.4883 63.8214C94.4946 63.0011 94.6902 62.1882 94.6543 61.3689C94.6247 60.7119 94.4428 60.0694 94.3825 59.4155C94.2767 58.341 94.4756 57.2623 94.6754 56.2013C94.8277 55.3884 94.9811 54.5743 95.1767 53.7697C95.2962 53.279 95.4348 52.7841 95.7055 52.3583C95.917 52.0204 96.2142 51.7379 96.4606 51.4166C97.1448 50.5296 97.4487 49.4119 97.3067 48.305C97.2919 48.2004 95.7203 48.6994 95.5818 48.7591C95.0167 48.9966 94.4966 49.3278 94.0441 49.7384C93.6803 50.0805 93.3937 50.5388 93.0753 50.9228C92.6248 51.4662 92.1799 52.0137 91.7407 52.5655C91.2394 53.1905 90.7483 53.8221 90.2675 54.4603Z" fill="black"/>
<path d="M85.1721 41.2237C86.5897 41.2237 87.7388 40.0868 87.7388 38.6844C87.7388 37.2819 86.5897 36.145 85.1721 36.145C83.7546 36.145 82.6054 37.2819 82.6054 38.6844C82.6054 40.0868 83.7546 41.2237 85.1721 41.2237Z" fill="#FBBEBE"/>
<path d="M87.4839 38.5776C87.7211 38.9518 88.032 39.275 88.3981 39.5277C88.7642 39.7805 89.1781 39.9576 89.6149 40.0487L89.4214 40.7445C89.0872 41.9394 88.7118 43.2033 87.779 44.032C87.8848 43.627 87.7494 43.1949 87.5188 42.8434C87.2883 42.4918 86.9647 42.2156 86.6474 41.9425L85.17 40.6765C85.1274 40.6421 85.0915 40.6003 85.0643 40.553C85.0278 40.4638 85.0278 40.364 85.0643 40.2747C85.2525 39.6951 85.7897 39.333 86.2276 38.9417C86.4473 38.7394 86.6434 38.5134 86.8124 38.2679C87.1075 37.8515 87.2904 38.27 87.4839 38.5776Z" fill="#FBBEBE"/>
<path d="M81.7911 36.1314L81.7329 35.6543C82.138 35.7589 82.5229 35.4179 82.782 35.0653C83.0411 34.7127 83.2812 34.2973 83.6757 34.1498C84.1547 33.9719 84.6624 34.2544 85.1203 34.4929C85.633 34.7744 86.1956 34.9556 86.7775 35.0265C86.8703 35.0296 86.9624 35.0444 87.0514 35.0705C87.3496 35.1751 87.4914 35.5455 87.5347 35.8814C87.5781 36.2172 87.5664 36.574 87.7134 36.8732C87.8192 37.1003 88.0159 37.2687 88.1365 37.4926C88.4537 38.0932 88.147 38.9145 88.4781 39.5036L87.6553 38.7576C87.5802 38.6896 87.4744 38.6185 87.3909 38.676C87.3253 38.722 87.32 38.8214 87.2936 38.9009C87.2143 39.1332 86.9203 39.2023 86.7077 39.1102C86.4951 39.0181 86.3397 38.8183 86.1789 38.6362C85.8151 38.2114 85.3815 37.8379 84.8739 37.6569C84.6514 37.5746 84.4137 37.5401 84.1767 37.5556C83.9396 37.5711 83.7087 37.6363 83.499 37.7469C83.1151 37.9614 82.8338 38.4615 82.3632 38.4793C81.7181 38.5034 81.4495 37.3148 81.1512 36.845C81.2604 36.7638 81.3372 36.6471 81.3681 36.5155C81.399 36.3839 81.3822 36.2457 81.3205 36.1251C81.3638 36.1074 81.7816 36.0582 81.7911 36.1314Z" fill="#464353"/>
<path d="M50.044 21.2857C49.8378 21.4672 49.6471 21.6652 49.474 21.8779C49.2997 22.0935 49.207 22.3625 49.2117 22.6385C49.2126 22.7186 49.2385 22.7964 49.2858 22.8614C49.3099 22.8925 49.3433 22.9154 49.3812 22.9268C49.4191 22.9383 49.4597 22.9377 49.4973 22.9252C49.5398 22.9038 49.5761 22.8721 49.603 22.8331C49.7148 22.7003 49.8334 22.5731 49.9584 22.4523C50.0038 22.4073 50.0641 22.3602 50.1255 22.377C50.153 22.3866 50.1777 22.4028 50.1974 22.424C50.2685 22.4849 50.3203 22.5649 50.3465 22.6542C50.3835 22.8143 50.2894 22.9744 50.1826 23.1C50.0758 23.2255 49.9499 23.3458 49.9065 23.5038C49.8901 23.5455 49.8901 23.5918 49.9065 23.6336C49.927 23.6637 49.9556 23.6877 49.989 23.7026C50.1405 23.7851 50.3084 23.8337 50.4809 23.8449C50.6534 23.8561 50.8263 23.8297 50.9874 23.7675C51.1989 23.6827 51.3872 23.5373 51.605 23.462C51.6993 23.4364 51.7908 23.4014 51.8779 23.3573C51.9402 23.3163 51.9937 23.2635 52.0352 23.2019C52.0768 23.1403 52.1056 23.0711 52.1201 22.9985C52.1475 22.8532 52.1529 22.7048 52.1359 22.558C52.1095 21.9896 51.9866 21.4297 51.7721 20.9017C51.7597 20.8677 51.7386 20.8374 51.7108 20.8138C51.679 20.7946 51.6423 20.7848 51.605 20.7856C51.3343 20.7573 50.8901 20.6203 50.6289 20.7197C50.5375 20.7692 50.4587 20.8386 50.3983 20.9226C50.3497 20.976 50.044 21.2156 50.044 21.2857Z" fill="#A1616A"/>
<path d="M49.9584 21.0492C49.9584 20.7939 49.6411 20.1776 50.1456 20.1368C50.1456 19.8637 49.7553 19.6942 49.8283 19.4044C49.8516 19.3082 49.9341 19.2297 49.9436 19.1313C49.9753 18.852 49.4656 18.7003 49.5502 18.4324C49.5819 18.3278 49.694 18.2671 49.7183 18.1635C49.7754 17.9218 49.3387 17.8141 49.3302 17.5661C49.3302 17.4824 49.3778 17.4039 49.3736 17.3202C49.3736 17.2156 49.2816 17.1361 49.2308 17.045C49.0986 16.8117 49.1631 16.4507 48.922 16.3304C49.0817 16.344 49.1335 16.1097 49.0679 15.9663C49.0024 15.823 48.868 15.6985 48.867 15.5394C48.8749 15.4818 48.8749 15.4234 48.867 15.3657C48.8226 15.213 48.5698 15.2004 48.5275 15.0519C48.522 14.9948 48.5203 14.9375 48.5222 14.8803C48.5053 14.762 48.3826 14.6867 48.2673 14.6532C48.1476 14.6331 48.0323 14.5924 47.9268 14.5329C47.8528 14.4774 47.7671 14.3854 47.6878 14.4283C47.6582 14.4461 47.6434 14.4795 47.6212 14.5046C47.526 14.6145 47.3441 14.5664 47.2246 14.4858C46.8713 14.2483 46.6958 13.8225 46.6207 13.4071C46.5456 12.9917 46.5477 12.5627 46.4536 12.1516C46.4249 12.0234 46.3867 11.8975 46.3394 11.7749C46.2992 11.6703 46.1702 11.506 46.1617 11.4003C46.1427 11.1597 46.6461 11.3239 46.8375 11.348C47.0234 11.366 47.2071 11.401 47.3864 11.4526C47.5777 11.5242 47.7652 11.6055 47.948 11.6964C48.7115 12.0302 49.6337 12.071 50.2471 12.6318C50.4491 12.8159 50.6194 13.0576 50.8817 13.1413C51.002 13.1642 51.1206 13.1946 51.237 13.2324C51.5278 13.3673 51.5733 13.7492 51.7319 14.0255C51.7818 14.0984 51.8253 14.1754 51.862 14.2556C51.8926 14.3503 51.9069 14.4493 51.9043 14.5486L51.9265 15.2737C51.9625 16.4884 51.9985 17.7063 51.8673 18.9137C51.825 19.3123 51.7616 19.7225 51.8811 20.1054C51.9128 20.2101 51.9572 20.3084 51.9868 20.4141C52.013 20.538 52.0264 20.6642 52.027 20.7907L52.0439 21.2605C52.0498 21.2971 52.0415 21.3344 52.0207 21.3652C52.003 21.3794 51.9823 21.3895 51.9602 21.3947C51.938 21.4 51.915 21.4002 51.8927 21.3955C51.2317 21.3369 50.5633 20.9686 49.9394 21.1915" fill="#464353"/>
<path d="M80.1222 57.1461C84.4421 57.1461 87.944 56.6454 87.944 56.0276C87.944 55.4099 84.4421 54.9091 80.1222 54.9091C75.8024 54.9091 72.3005 55.4099 72.3005 56.0276C72.3005 56.6454 75.8024 57.1461 80.1222 57.1461Z" fill="#504F60"/>
<path d="M86.8515 56.082C86.714 55.4993 86.6284 54.9876 86.6284 54.9876C86.6284 54.9876 86.6601 54.3536 86.3724 53.8775V53.7185V52.5466C86.4543 52.3339 86.5544 52.1284 86.6717 51.9325C86.8832 51.5642 86.6717 50.2145 86.6717 50.2145C86.6717 50.2145 85.8817 48.3113 86.0731 47.1039C86.2646 45.8964 84.4508 41.7427 84.4508 41.7427C84.462 41.3421 84.5191 40.944 84.6211 40.5562C84.6405 40.4747 84.6483 40.3909 84.6444 40.3072C84.6444 40.2967 84.6444 40.2873 84.6444 40.2768C84.6444 40.2664 84.6444 40.2831 84.6444 40.2863C84.6169 39.49 83.9802 37.998 83.9802 37.998L84.0659 35.1542C84.0659 35.1542 84.472 33.4802 83.8099 31.2254C83.5783 30.4396 83.4303 29.8108 83.3362 29.3253C83.3256 29.2709 83.315 29.2207 83.3065 29.1674C84.6697 28.9581 85.7114 28.7907 85.7114 28.7907C85.7114 28.7907 84.9204 25.5169 84.3863 24.9435C83.8522 24.3701 83.425 22.5695 83.425 22.5695C83.425 22.5695 83.1469 20.2582 83.5963 19.5823C84.0458 18.9064 84.1092 17.7409 84.1092 17.7409C84.1092 17.7409 85.134 17.0085 85.263 16.6768C85.3921 16.3451 85.6046 15.6127 85.6046 15.2245C85.6046 14.8364 85.4767 14.4921 85.519 14.2829C85.5613 14.0736 85.2197 13.3004 85.391 12.9321C85.4353 12.819 85.4583 12.6988 85.4587 12.5774C85.4591 12.574 85.4591 12.5704 85.4587 12.567C85.4603 12.2447 85.4302 11.923 85.3688 11.6065C85.0724 11.3588 84.7264 11.1759 84.3535 11.0697L84.3313 10.9818L84.2732 10.7517C84.2407 10.7304 84.2072 10.7109 84.1727 10.6931V10.6094L84.1632 10.2766L84.3239 9.5296C84.6412 8.23011 82.8867 8.03654 82.8867 8.03654C82.7803 7.83721 82.6033 7.68372 82.3896 7.60547C82.0375 7.48306 82.3315 9.55994 82.4954 9.69805C82.6191 9.80268 83.002 10.4493 83.187 10.7694L83.2167 10.8218C83.1877 10.8475 83.1608 10.8755 83.1363 10.9055L83.2029 11.3564L83.2135 11.4255C83.0972 11.5683 83.0028 11.7273 82.9332 11.8973C82.9332 11.8973 83.2505 12.2447 83.1902 12.6297C83.1299 13.0148 83.2886 13.5034 83.296 13.5296C83.2769 13.5076 83.0517 13.2669 82.8264 13.3255C82.6012 13.3841 81.9719 13.5714 81.9719 13.5714C81.9719 13.5714 81.5023 13.653 81.5489 13.7555C81.5954 13.8581 81.2316 14.308 81.2316 14.308L79.9689 13.1236C79.9562 13.088 79.9424 13.0524 79.9319 13.019C79.8803 12.8482 79.8449 12.6731 79.8261 12.4958C79.9637 12.4635 80.0987 12.4211 80.2301 12.3692C80.3628 12.3242 80.4825 12.2481 80.5791 12.1474C80.7071 11.9978 80.7314 11.7948 80.7832 11.6086C80.8826 11.2445 81.1005 10.9212 81.2517 10.5748C81.5078 9.98963 81.5903 9.34441 81.4896 8.71454C81.4703 8.52043 81.4039 8.33381 81.2961 8.17047C81.0899 7.89006 80.7155 7.77602 80.4437 7.55211C80.1719 7.32821 79.9964 6.98607 79.6791 6.81971C79.3925 6.668 79.0446 6.68579 78.7209 6.7381C78.0889 6.84121 77.4817 7.05977 76.9305 7.38261C76.7465 7.48724 76.5434 7.61594 76.3319 7.57722C76.15 7.54479 76.0146 7.40145 75.9004 7.26334C75.9017 7.25762 75.9035 7.25202 75.9057 7.2466C75.9006 7.2415 75.8959 7.23589 75.892 7.22986C75.7581 7.5237 75.691 7.84297 75.6953 8.16524C75.6953 8.21546 75.6953 8.26987 75.7016 8.31486V8.36717C75.7016 8.38182 75.7016 8.39647 75.7016 8.41007C75.7016 8.43237 75.6984 8.45456 75.6921 8.47598C75.6654 8.53999 75.625 8.59747 75.5736 8.64444C75.5348 8.68806 75.4995 8.73458 75.4679 8.78359C75.4679 8.76685 75.4784 8.75011 75.4848 8.73232C75.4041 8.84883 75.3586 8.98564 75.3537 9.12678C75.3477 9.22951 75.3818 9.33059 75.4488 9.40927C75.5121 9.4701 75.5812 9.52476 75.6551 9.57249C75.6299 9.71062 75.6172 9.85067 75.617 9.99101C75.6194 10.4071 75.7302 10.8155 75.9388 11.1767C76.1475 11.538 76.4468 11.8399 76.8078 12.0532C76.8226 12.0878 76.8364 12.1233 76.8501 12.1579C77.0119 12.5764 77.1335 13.0681 77.0796 13.518C77.0796 13.5505 77.0701 13.584 77.0648 13.6164C77.0595 13.6488 77.0331 13.6509 77.0193 13.6687C77.0193 13.6687 74.9327 13.6896 74.442 13.2502C73.9513 12.8108 73.2026 14.3247 73.2026 14.3247C73.2026 14.3247 72.4549 14.4681 72.3047 14.3247C72.1545 14.1814 71.2799 14.3048 71.2799 14.3048C70.9216 13.9896 70.4553 13.8212 69.9759 13.834C69.6855 13.6157 69.365 13.4395 69.0241 13.3109L69.0009 13.3025C68.8504 13.2483 68.6896 13.2282 68.5303 13.2439C68.5303 13.2439 67.5044 12.4069 67.2051 11.9549C66.9058 11.5029 65.4813 9.83406 65.475 9.82674V9.74618L65.4591 9.50344C65.4167 9.51001 65.374 9.51351 65.3311 9.5139C65.3237 9.48984 65.3131 9.46159 65.3026 9.42915C65.2205 9.19238 65.1193 8.96251 65.0001 8.74174C65.0001 8.74174 65.0001 8.43518 65.09 8.35775C65.1799 8.28033 65.053 7.15557 65.053 7.15557C65.053 7.15557 64.1287 5.01801 63.3006 6.61359C63.3006 6.61359 61.7354 7.64628 63.0489 8.84951C63.0489 8.84951 63.5777 9.10062 63.6475 9.29941C63.6961 9.42811 63.8738 9.78907 63.9933 10.0318L64.0472 10.1364L64.0324 10.149L64.0515 10.3499L64.0599 10.4273C63.8125 10.5665 63.6443 10.7046 63.6856 10.8082C63.7584 10.9854 63.8085 11.171 63.8347 11.3606C63.8347 11.3606 65.6516 13.6122 65.8863 14.5737C65.8863 14.5737 70.7585 17.4385 72.3608 17.6425L72.0773 19.0707C72.036 19.4582 72.0149 19.8476 72.0139 20.2373C72.035 20.5439 71.8214 21.9354 71.8214 21.9354C71.8214 21.9354 71.5433 23.982 71.3085 24.2686C71.0737 24.5553 71.116 25.7826 71.116 25.7826C71.0606 26.3702 70.9544 26.9519 70.7987 27.5215C70.5639 28.2989 70.7342 29.2615 70.7342 29.2615C70.7342 29.2615 69.9231 31.103 71.8669 29.8548C71.8669 29.8548 72.8187 29.7962 73.9207 29.7585C73.9207 29.7941 73.9207 29.8307 73.9207 29.8631C73.9207 30.0033 73.9207 30.1551 73.9133 30.3141C73.8985 31.3687 73.8921 32.8252 73.9408 33.9217C74.0264 35.8657 74.625 39.7129 74.625 39.7129V41.6496C74.5864 41.8312 74.5672 42.0164 74.5679 42.202C74.5552 42.8834 74.7386 43.5544 75.0967 44.1366L75.2468 45.4256C75.2468 45.4256 75.598 46.2752 75.6043 46.7858C75.6029 46.8269 75.598 46.8679 75.5895 46.9082C75.5758 46.9732 75.5701 47.0396 75.5726 47.106C75.5525 47.6919 75.9089 49.0939 75.9089 49.0939C75.9089 49.0939 75.93 50.5053 76.1437 50.588C76.3266 50.6581 75.8994 51.401 75.7725 51.6144C75.7691 51.6013 75.7666 51.588 75.7651 51.5746L75.7386 51.6165C75.6945 51.7308 75.6719 51.852 75.672 51.9743C75.6599 52.0707 75.6758 52.1685 75.7178 52.2563C75.7597 52.3441 75.826 52.4183 75.9089 52.4703C76.315 52.7161 76.5328 52.9202 76.1881 53.0018C76.0613 53.0213 75.9356 53.0475 75.8116 53.0802C75.8116 53.0646 75.7989 53.0478 75.7936 53.0332C75.745 53.052 75.7044 53.0868 75.6788 53.1318C75.6531 53.1768 75.644 53.2292 75.653 53.2801C75.6562 53.4461 75.6994 53.6089 75.7788 53.7551C76.1204 54.5126 76.3573 54.8014 76.3573 54.8014L76.5212 54.7836C76.497 54.8456 76.465 54.9043 76.426 54.9583C76.3636 55.0461 76.281 55.1178 76.1849 55.1676C76.0954 55.2206 75.9956 55.2545 75.892 55.267C75.7761 55.2707 75.6624 55.2985 75.5582 55.3487C75.4539 55.3988 75.3616 55.4701 75.287 55.5579C75.0755 55.8309 74.9402 56.2024 75.3611 56.5288L76.8892 57.052C76.8892 57.052 79.5183 57.3899 79.3787 56.8061C79.2391 56.2222 79.1545 55.7117 79.1545 55.7117C79.1658 55.3552 79.0934 55.001 78.943 54.6769C78.9155 54.624 78.8844 54.5729 78.85 54.5241L78.943 54.5147C78.943 54.5147 79.1355 53.2246 79.3914 52.9798C79.4507 52.9233 79.4644 52.8752 79.4507 52.8459C79.4771 52.7758 79.4094 52.735 79.3238 52.7109L79.3047 52.7622C79.221 52.7441 79.1356 52.7347 79.0498 52.7339C79.0498 52.7339 78.9642 52.0591 79.2423 51.8132C79.2648 51.7852 79.2811 51.7529 79.2904 51.7183C79.2997 51.6837 79.3017 51.6477 79.2963 51.6123C79.2984 51.5197 79.2884 51.4272 79.2666 51.3371C79.2639 51.3429 79.2607 51.3485 79.2571 51.3539C79.1175 50.7408 78.6437 49.7667 78.6437 49.7667C78.6437 49.7667 78.6226 49.1535 78.7939 48.9077C78.9652 48.6618 78.7717 45.5721 78.7717 45.5721C78.7717 45.5721 78.8362 44.079 78.6437 43.3833C78.4513 42.6875 78.8785 41.8682 78.8785 41.8682C78.8785 41.8682 78.8785 41.8525 78.8785 41.8243V41.8138L78.8542 41.5784C78.8536 41.5833 78.8536 41.5882 78.8542 41.5931C78.8108 41.1976 78.7294 40.4809 78.6691 40.1502C78.5835 39.6794 78.6913 37.4299 78.6913 37.4299L79.0752 36.4673L79.7595 38.1257L80.486 40.3354C80.486 40.3354 80.8456 40.8021 80.8541 41.2771C80.8541 41.3001 80.8541 41.3231 80.8541 41.3461C80.8482 41.3951 80.8454 41.4444 80.8456 41.4937C80.8327 41.7729 80.9101 42.0488 81.0666 42.2815C81.0666 42.2815 81.2591 43.3278 81.5584 43.5904C81.8577 43.853 81.8577 44.3678 81.8577 44.3678C81.8577 44.3678 82.2204 45.8828 82.3865 46.1465C82.5303 46.3704 82.5377 46.9835 82.5366 47.175C82.5366 47.2095 82.5366 47.2294 82.5366 47.2294C82.5366 47.2294 82.5874 47.7714 82.5853 48.2255C82.5853 48.282 82.5853 48.3364 82.5853 48.3877C82.5858 48.3838 82.5858 48.38 82.5853 48.3761C82.5852 48.5002 82.5703 48.6238 82.5409 48.7444L82.5345 48.7654C82.5345 48.7392 82.5345 48.7141 82.5419 48.689C82.4676 48.9974 82.432 49.3136 82.4362 49.6306C82.4267 50.1747 82.5102 50.8192 82.8433 51.2001C83.4208 51.855 83.7835 51.7734 83.7835 51.7734C83.7835 51.7734 83.5064 52.5916 83.1638 52.7559C83.1508 52.762 83.1387 52.7697 83.1278 52.7789C83.1278 52.7622 83.1215 52.7465 83.1194 52.7308C83.0812 52.7716 83.052 52.8199 83.0338 52.8725C83.0156 52.9251 83.0087 52.9809 83.0136 53.0363C82.9893 53.3962 83.2188 53.978 83.4366 54.249C83.5175 54.3273 83.6167 54.3848 83.7253 54.4164C83.7081 54.4284 83.6901 54.4392 83.6714 54.4488C83.6334 54.4695 83.5942 54.488 83.554 54.5042C83.4984 54.5276 83.4396 54.5428 83.3795 54.5492C83.2636 54.5523 83.1496 54.5798 83.0453 54.63C82.941 54.6802 82.8487 54.7518 82.7746 54.8401C82.5631 55.1121 82.4277 55.4836 82.8486 55.81L84.3768 56.3332C84.3768 56.3332 86.989 56.6648 86.8515 56.082Z" fill="url(#paint0_linear)"/>
<path d="M76.8142 57.0488L75.3336 56.5257C74.9254 56.1992 75.0555 55.8278 75.2617 55.5547C75.3327 55.4676 75.4217 55.3966 75.5227 55.3464C75.6238 55.2962 75.7346 55.2681 75.8476 55.2638C75.9478 55.2512 76.0442 55.2173 76.13 55.1644C76.2238 55.114 76.3043 55.0423 76.3647 54.9552C76.4728 54.7856 76.531 54.5896 76.5329 54.3891C76.5329 54.3891 78.1573 53.9183 78.6015 54.3891C78.6808 54.4744 78.747 54.5706 78.7982 54.6748C78.9458 54.9998 79.018 55.3533 79.0097 55.7096C79.0097 55.7096 79.0922 56.2201 79.2265 56.804C79.3608 57.3878 76.8142 57.0488 76.8142 57.0488Z" fill="#2D293D"/>
<path d="M84.0522 56.3268L82.5716 55.8037C82.1634 55.4773 82.2934 55.1058 82.4997 54.8338C82.5701 54.7464 82.6589 54.6751 82.7598 54.6249C82.8608 54.5747 82.9716 54.5467 83.0845 54.5429C83.143 54.537 83.2001 54.5218 83.2537 54.4979C83.2928 54.4816 83.3309 54.4631 83.3679 54.4425C83.7814 54.2175 83.7709 53.6651 83.7709 53.6651C83.7709 53.6651 85.3942 53.1943 85.8395 53.6651C85.8991 53.7289 85.9512 53.7991 85.9949 53.8744C86.2731 54.3504 86.2424 54.9855 86.2424 54.9855C86.2424 54.9855 86.3249 55.4971 86.4539 56.0799C86.5829 56.6627 84.0522 56.3268 84.0522 56.3268Z" fill="#2D293D"/>
<path opacity="0.1" d="M78.6025 54.3881C78.6818 54.4733 78.7481 54.5695 78.7992 54.6737L76.3668 54.9531C76.4748 54.7835 76.5331 54.5875 76.535 54.387C76.535 54.387 78.1583 53.9173 78.6025 54.3881Z" fill="black"/>
<path opacity="0.1" d="M85.9971 53.8765V54.3274C85.6185 54.9437 83.7878 54.8087 83.2559 54.5001C83.295 54.4837 83.3331 54.4652 83.3701 54.4446C83.7836 54.2197 83.773 53.6672 83.773 53.6672C83.773 53.6672 85.3964 53.1964 85.8416 53.6672C85.9012 53.731 85.9533 53.8012 85.9971 53.8765Z" fill="black"/>
<path d="M86.2857 51.9325C86.1725 52.129 86.076 52.3344 85.997 52.5467V54.1632C85.5824 54.838 83.4324 54.6131 83.1416 54.2448C82.8507 53.8765 82.5472 52.9181 82.874 52.7517C83.2008 52.5854 83.4736 51.7693 83.4736 51.7693C83.4736 51.7693 83.1215 51.8509 82.5631 51.1959C82.0047 50.5409 82.1707 49.0887 82.2744 48.7413C82.378 48.394 82.2744 47.2273 82.2744 47.2273C82.2744 47.2273 82.2955 46.4081 82.1305 46.1423C81.9656 45.8766 81.6134 44.3636 81.6134 44.3636C81.6134 44.3636 81.6134 43.852 81.3236 43.5863C81.0338 43.3205 80.8477 42.2763 80.8477 42.2763C80.6783 42.0154 80.6054 41.7044 80.6415 41.3964C80.7028 40.8847 80.2893 40.3323 80.2893 40.3323L79.586 38.1215L78.924 36.4642L78.5517 37.4257C78.5517 37.4257 78.446 39.6763 78.5316 40.1461C78.6173 40.6158 78.7432 41.8651 78.7432 41.8651C78.7432 41.8651 78.3296 42.6833 78.5158 43.3791C78.7019 44.0749 78.6342 45.57 78.6342 45.57C78.6342 45.57 78.8204 48.6587 78.6543 48.9045C78.4883 49.1504 78.5094 49.7646 78.5094 49.7646C78.5094 49.7646 79.3555 51.5642 79.089 51.8101C78.8225 52.056 78.9028 52.7308 78.9028 52.7308C78.9028 52.7308 79.4813 52.7308 79.2339 52.9767C78.9864 53.2226 78.7992 54.5116 78.7992 54.5116L76.2981 54.8014C76.2981 54.8014 76.0696 54.5158 75.7386 53.7551C75.4076 52.9945 75.7999 53.0803 76.1331 52.9976C76.4662 52.915 76.2558 52.712 75.8623 52.4661C75.4689 52.2202 75.6974 51.6678 75.6974 51.6678C75.6974 51.6678 76.297 50.6654 76.0897 50.5838C75.8824 50.5022 75.8623 49.0897 75.8623 49.0897C75.8623 49.0897 75.4488 47.4157 75.5525 46.9616C75.6561 46.5075 75.2215 45.4277 75.2215 45.4277L75.0766 44.1387C74.634 43.4072 74.4726 42.5425 74.6218 41.7029V39.715C74.6218 39.715 74.0423 35.8688 73.9598 33.9248C73.9069 32.6797 73.9217 30.9806 73.9386 29.9207C73.9492 29.3264 73.9598 28.9319 73.9598 28.9319L82.8941 28.0112C82.8941 28.0112 82.8856 28.4193 83.0559 29.3243C83.1479 29.8098 83.2907 30.4386 83.5149 31.2244C84.1558 33.4749 83.7634 35.1521 83.7634 35.1521L83.6799 37.997C83.6799 37.997 84.4656 39.8991 84.3007 40.5541C84.2009 40.943 84.1449 41.3416 84.1336 41.7427C84.1336 41.7427 85.8912 45.8965 85.7051 47.1039C85.519 48.3113 86.2836 50.2145 86.2836 50.2145C86.2836 50.2145 86.493 51.5642 86.2857 51.9325Z" fill="#464353"/>
<path opacity="0.05" d="M81.1777 41.2729L83.8978 40.914C83.8978 40.914 82.3569 42.4698 81.1777 41.2729Z" fill="black"/>
<path opacity="0.1" d="M83.5043 38.2847C83.5043 38.2847 83.5974 39.2368 83.0084 39.5946C83.0084 39.5946 84.0627 39.4314 83.5043 38.2847Z" fill="black"/>
<path opacity="0.1" d="M83.3373 35.2567C83.3373 35.2567 81.0635 37.1087 80.2365 36.9549C79.4095 36.8011 83.3373 35.2567 83.3373 35.2567Z" fill="black"/>
<path opacity="0.1" d="M77.8062 42.1413C77.8062 42.1413 76.0791 42.5295 76.0273 43.2159C75.9755 43.9022 77.8062 42.1413 77.8062 42.1413Z" fill="black"/>
<path opacity="0.05" d="M78.1858 50.6748C78.1858 50.6748 75.7461 51.1247 76.4388 51.4313C77.1314 51.7378 78.2693 51.9837 78.2693 51.9837C78.2693 51.9837 79.0572 52.0245 78.1858 50.6748Z" fill="black"/>
<g opacity="0.05">
<path opacity="0.05" d="M75.9459 51.9189C75.8846 51.881 75.8326 51.8298 75.794 51.7694C75.7554 51.7089 75.731 51.6405 75.7228 51.5694L75.6974 51.6123C75.6974 51.6123 75.47 52.1647 75.8634 52.4095C75.9078 52.4378 75.9512 52.466 75.9903 52.4932C76.0633 52.4796 76.1416 52.4692 76.2166 52.4503C76.5498 52.3687 76.3393 52.1647 75.9459 51.9189Z" fill="black"/>
<path opacity="0.05" d="M79.089 51.7546C79.1566 51.6939 79.1545 51.537 79.1133 51.3361C79.0076 51.4941 78.9769 51.741 78.9748 51.9283C79.0005 51.8633 79.0393 51.8042 79.089 51.7546Z" fill="black"/>
<path opacity="0.05" d="M78.7136 41.5753C78.6237 41.8173 78.5682 42.0704 78.5486 42.3275C78.5957 42.1499 78.6591 41.9769 78.7379 41.8107L78.7136 41.5753Z" fill="black"/>
<path opacity="0.05" d="M84.3017 40.5018C84.3179 40.4282 84.3254 40.3531 84.3239 40.2778C84.2932 40.4306 84.2721 40.5719 84.2562 40.6964C84.27 40.6326 84.2848 40.5719 84.3017 40.5018Z" fill="black"/>
<path opacity="0.05" d="M78.6554 48.8501C78.6892 48.7998 78.7083 48.6304 78.7167 48.395C78.6402 48.5771 78.5996 48.7721 78.5972 48.9693C78.6117 48.9274 78.6312 48.8873 78.6554 48.8501Z" fill="black"/>
<path opacity="0.05" d="M79.163 52.7088C79.0348 53.1192 78.9397 53.539 78.8785 53.9643L76.3774 54.2499C76.3774 54.2499 76.1489 53.9643 75.8179 53.2037C75.7912 53.1449 75.7676 53.0849 75.7471 53.0237C75.5969 53.0917 75.5356 53.2455 75.7344 53.6944C76.0654 54.4519 76.2949 54.7406 76.2949 54.7406L78.796 54.454C78.796 54.454 78.9822 53.165 79.2297 52.9191C79.3566 52.8009 79.2783 52.7391 79.163 52.7088Z" fill="black"/>
<path opacity="0.05" d="M75.8634 49.0342C75.8634 49.0342 75.8835 50.4457 76.0908 50.5273C76.1965 50.294 76.2653 50.0722 76.1722 50.0355C75.9607 49.9539 75.9448 48.5414 75.9448 48.5414C75.9448 48.5414 75.5313 46.8674 75.635 46.4133C75.7386 45.9592 75.304 44.8794 75.304 44.8794L75.1591 43.5904C74.7165 42.8589 74.5551 41.9943 74.7043 41.1546V39.1667C74.7043 39.1667 74.1248 35.3206 74.0423 33.3766C73.9894 32.1315 74.0042 30.4323 74.0211 29.3724C74.0211 29.1809 74.0275 29.0114 74.0306 28.8681L73.9598 28.8754C73.9598 28.8754 73.9482 29.2688 73.9386 29.8642C73.9217 30.9241 73.9059 32.6232 73.9598 33.8673C74.0423 35.8113 74.6208 39.6585 74.6208 39.6585V41.6464C74.4723 42.4858 74.6341 43.35 75.0766 44.0811L75.2204 45.3701C75.2204 45.3701 75.6551 46.4541 75.5514 46.905C75.4478 47.356 75.8634 49.0342 75.8634 49.0342Z" fill="black"/>
<path opacity="0.05" d="M83.2262 53.6986C83.023 53.4076 82.8876 53.0756 82.8296 52.7266C82.5747 52.9547 82.8677 53.8398 83.1469 54.1914C83.4356 54.5597 85.5868 54.7847 86.0024 54.1087V53.7195C85.4387 54.2667 83.4991 54.047 83.2262 53.6986Z" fill="black"/>
<path opacity="0.05" d="M86.3693 51.3863C86.2559 51.5828 86.159 51.7882 86.0795 52.0005V52.2903C86.1271 52.1857 86.1937 52.0455 86.291 51.8801C86.3565 51.719 86.3874 51.5462 86.382 51.3727C86.382 51.3727 86.3725 51.3821 86.3693 51.3863Z" fill="black"/>
<path opacity="0.05" d="M83.3531 51.7096C83.4318 51.552 83.5 51.3895 83.5573 51.2231C83.5573 51.2231 83.2051 51.3047 82.6467 50.6497C82.2405 50.1736 82.2173 49.2738 82.2754 48.6858C82.1697 49.0342 82.0058 50.4865 82.5642 51.1415C82.929 51.5694 83.2051 51.6824 83.3531 51.7096Z" fill="black"/>
<path opacity="0.05" d="M82.2744 47.1718C82.3109 47.575 82.3246 47.9798 82.3156 48.3845C82.326 48.3206 82.3401 48.2574 82.3579 48.1951C82.4637 47.8467 82.3579 46.6811 82.3579 46.6811C82.3579 46.6811 82.3791 45.8619 82.2131 45.5961C82.047 45.3304 81.7012 43.8154 81.7012 43.8154C81.7012 43.8154 81.7012 43.3037 81.4114 43.038C81.1216 42.7722 80.9355 41.728 80.9355 41.728C80.7646 41.4676 80.6899 41.1567 80.724 40.8481C80.7864 40.3364 80.3729 39.784 80.3729 39.784L79.6696 37.5742L79.0076 35.9169L78.6343 36.8795C78.6343 36.8795 78.6343 37.0009 78.6216 37.1934L78.924 36.4118L79.5861 38.066L80.2894 40.2758C80.2894 40.2758 80.7029 40.8282 80.6405 41.3398C80.6063 41.6485 80.681 41.9594 80.852 42.2198C80.852 42.2198 81.0381 43.2661 81.3279 43.5297C81.6176 43.7934 81.6166 44.3071 81.6166 44.3071C81.6166 44.3071 81.9688 45.8211 82.1337 46.0858C82.2987 46.3505 82.2744 47.1718 82.2744 47.1718Z" fill="black"/>
</g>
<path d="M84.0109 9.52645L83.8555 10.2735L83.865 10.6062L83.8713 10.8511L83.0083 10.9389L82.9121 10.7621C82.7334 10.442 82.3622 9.79116 82.2426 9.69072C82.083 9.55889 81.7985 7.48096 82.1369 7.60442C82.3452 7.68403 82.5163 7.83725 82.617 8.03445C82.617 8.03445 84.3166 8.22696 84.0109 9.52645Z" fill="#FFCDD3"/>
<path opacity="0.1" d="M83.8713 10.8511L83.0083 10.9389L82.9121 10.7621C83.0282 10.6314 83.1865 10.5445 83.36 10.5163C83.5336 10.488 83.7116 10.5202 83.8639 10.6073L83.8713 10.8511Z" fill="black"/>
<path d="M84.0892 11.2559L82.9513 11.5165L82.9269 11.3491L82.8624 10.8981C82.8624 10.8981 83.313 10.3038 83.9644 10.7495L84.0215 10.9787L84.0892 11.2559Z" fill="#FFF980"/>
<path d="M65.6558 9.60806L64.4407 10.2526L64.3349 10.0266C64.2196 9.78698 64.0472 9.42601 63.9996 9.29418C63.9277 9.09538 63.4212 8.84427 63.4212 8.84427C62.1521 7.64209 63.6644 6.60836 63.6644 6.60836C64.466 5.01277 65.3565 7.15034 65.3565 7.15034C65.3565 7.15034 65.4813 8.27719 65.3935 8.35252C65.3058 8.42785 65.3058 8.73651 65.3058 8.73651C65.4216 8.95764 65.5195 9.1875 65.5987 9.42392C65.6357 9.53796 65.6558 9.60806 65.6558 9.60806Z" fill="#FFCDD3"/>
<path opacity="0.1" d="M65.6558 9.60806L64.4407 10.2526L64.3349 10.0266C64.5062 9.88428 65.1143 9.3988 65.3142 9.41868C65.4096 9.43047 65.506 9.43292 65.6019 9.42601C65.6357 9.53796 65.6558 9.60806 65.6558 9.60806Z" fill="black"/>
<path d="M65.7795 9.97112L64.4142 10.6366L64.3867 10.3467L64.3677 10.1459C64.3677 10.1459 65.1587 9.47518 65.3925 9.50134C65.5106 9.51828 65.6307 9.51828 65.7489 9.50134L65.7647 9.74408L65.7795 9.97112Z" fill="#FFF980"/>
<path d="M80.7018 14.489C80.7018 14.489 74.7498 15.1534 75.8623 14.7956C76.6365 14.5455 76.9442 14.0632 77.0087 13.5191C77.0616 13.0661 76.9432 12.5774 76.7877 12.1589C76.6478 11.7876 76.4707 11.4312 76.2589 11.0948C76.2589 11.0948 80.8065 8.61932 79.898 10.8699C79.7579 11.2103 79.6709 11.5698 79.64 11.9361C79.6127 12.3 79.6525 12.6659 79.7574 13.0158C79.9289 13.5836 80.2558 14.0934 80.7018 14.489Z" fill="#FFCDD3"/>
<path opacity="0.1" d="M79.8948 10.8668C79.7547 11.2072 79.6677 11.5667 79.6368 11.9329C79.2085 12.2897 78.7389 12.2656 78.1351 12.2656C77.6719 12.2656 77.1579 12.3766 76.7877 12.1558C76.6479 11.7845 76.4707 11.428 76.259 11.0917C76.259 11.0917 80.8054 8.6162 79.8948 10.8668Z" fill="black"/>
<path d="M78.0547 12.4226C79.4139 12.4226 80.5157 11.3325 80.5157 9.98786C80.5157 8.6432 79.4139 7.55315 78.0547 7.55315C76.6956 7.55315 75.5938 8.6432 75.5938 9.98786C75.5938 11.3325 76.6956 12.4226 78.0547 12.4226Z" fill="#FFCDD3"/>
<path opacity="0.1" d="M80.7018 14.489C80.7018 14.489 74.7498 15.1534 75.8623 14.7955C76.6365 14.5455 76.9442 14.0631 77.0087 13.5191C77.3049 13.2052 77.9003 12.9719 78.2778 12.8505C78.6269 12.7344 79.0038 12.7281 79.3566 12.8327C79.4953 12.874 79.6274 12.9346 79.7489 13.0127C79.9223 13.5825 80.2522 14.0936 80.7018 14.489Z" fill="black"/>
<path opacity="0.1" d="M84.0892 11.256L82.9513 11.5165L82.9269 11.3491C83.0488 11.1835 83.2192 11.0591 83.4151 10.9928C83.611 10.9266 83.8227 10.9216 84.0215 10.9787L84.0892 11.256Z" fill="black"/>
<path opacity="0.1" d="M65.7795 9.97113L64.4142 10.6366L64.3867 10.3467C64.829 10.1115 65.2886 9.9097 65.7616 9.74304L65.7795 9.97113Z" fill="black"/>
<path opacity="0.1" d="M83.0559 29.3264C80.7494 29.6905 77.4709 30.155 76.9506 29.9981C76.5181 29.8684 75.139 29.882 73.9387 29.9228C73.9492 29.3285 73.9598 28.934 73.9598 28.934L82.8941 28.0133C82.8941 28.0133 82.8857 28.4213 83.0559 29.3264Z" fill="black"/>
<path d="M85.3551 28.7907C85.3551 28.7907 77.765 30.0797 76.9506 29.837C76.1363 29.5942 71.9536 29.8569 71.9536 29.8569C70.0712 31.1051 70.857 29.2636 70.857 29.2636C70.857 29.2636 70.692 28.3021 70.9193 27.5247C71.0721 26.9539 71.1764 26.3716 71.2313 25.7837C71.2313 25.7837 71.1901 24.5553 71.4175 24.2686C71.6448 23.9819 71.9145 21.9365 71.9145 21.9365C71.9145 21.9365 72.1207 20.5449 72.1006 20.2383C72.0806 19.9318 72.162 19.0717 72.162 19.0717L72.4317 17.6394C70.8802 17.4353 66.1645 14.5706 66.1645 14.5706C65.9372 13.6091 64.1795 11.3585 64.1795 11.3585C64.1539 11.1692 64.1052 10.9837 64.0346 10.8061C63.9109 10.4786 65.7722 9.82359 65.7722 9.82359C65.7722 9.82359 67.1576 11.4977 67.4474 11.9517C67.7371 12.4058 68.7291 13.2408 68.7291 13.2408C68.8833 13.2251 69.039 13.2451 69.1839 13.2994L69.2082 13.3067C69.5406 13.4358 69.8524 13.612 70.1336 13.8298C70.5999 13.8189 71.0524 13.9877 71.3952 14.3007C71.3952 14.3007 72.2413 14.1772 72.3883 14.3205C72.5353 14.4639 73.2566 14.3205 73.2566 14.3205C73.2566 14.3205 73.9799 12.8066 74.4558 13.246C74.9318 13.6854 76.9506 13.6645 76.9506 13.6645C77.2193 13.3109 77.8739 13.0577 78.2832 12.9321C78.6323 12.8165 79.009 12.8103 79.3619 12.9143C79.5141 12.9593 79.6573 13.0301 79.7849 13.1236L81.0128 14.3101C81.0128 14.3101 81.3639 13.8591 81.3226 13.7576C81.2814 13.6561 81.7361 13.5735 81.7361 13.5735C81.7361 13.5735 82.3358 13.3893 82.5631 13.3276C82.7905 13.2659 82.9989 13.5097 83.0179 13.5316C83.0105 13.5055 82.855 13.0085 82.9121 12.6318C82.9693 12.2552 82.6636 11.8994 82.6636 11.8994C83.387 10.1396 85.0209 11.6127 85.0209 11.6127C85.0209 11.6127 85.2071 12.5743 85.0421 12.9426C84.8771 13.3109 85.2071 14.0883 85.1658 14.2933C85.1246 14.4984 85.2494 14.8458 85.2494 15.235C85.2494 15.6242 85.0378 16.3597 84.9183 16.6872C84.7988 17.0147 83.8016 17.7513 83.8016 17.7513C83.8016 17.7513 83.7392 18.9179 83.3045 19.5928C82.8698 20.2676 83.1427 22.5757 83.1427 22.5757C83.1427 22.5757 83.5562 24.3764 84.0733 24.9498C84.5905 25.5231 85.3551 28.7907 85.3551 28.7907Z" fill="#3F3D56"/>
<path opacity="0.1" d="M74.2908 15.3271C74.2908 15.3271 74.0634 14.6522 73.8562 14.5947C73.6504 14.5198 73.45 14.431 73.2565 14.3289L73.3898 14.0768C73.3898 14.0768 74.166 14.286 74.2908 14.5131C74.4156 14.7401 74.2908 15.3271 74.2908 15.3271Z" fill="black"/>
<path opacity="0.1" d="M70.1336 13.834C70.0923 14.0433 68.2511 14.2222 68.2511 14.2222L69.1818 13.2994L69.205 13.3077C69.5388 13.4376 69.8516 13.6149 70.1336 13.834Z" fill="black"/>
<path d="M64.8076 11.189C64.8987 11.189 64.9726 11.1159 64.9726 11.0258C64.9726 10.9356 64.8987 10.8625 64.8076 10.8625C64.7165 10.8625 64.6426 10.9356 64.6426 11.0258C64.6426 11.1159 64.7165 11.189 64.8076 11.189Z" fill="#575988"/>
<path d="M65.0191 11.5165C65.1103 11.5165 65.1842 11.4434 65.1842 11.3532C65.1842 11.2631 65.1103 11.19 65.0191 11.19C64.928 11.19 64.8541 11.2631 64.8541 11.3532C64.8541 11.4434 64.928 11.5165 65.0191 11.5165Z" fill="#575988"/>
<path d="M65.2264 11.8189C65.3176 11.8189 65.3914 11.7458 65.3914 11.6556C65.3914 11.5655 65.3176 11.4924 65.2264 11.4924C65.1353 11.4924 65.0615 11.5655 65.0615 11.6556C65.0615 11.7458 65.1353 11.8189 65.2264 11.8189Z" fill="#575988"/>
<path d="M65.4432 12.1453C65.5344 12.1453 65.6082 12.0722 65.6082 11.9821C65.6082 11.8919 65.5344 11.8189 65.4432 11.8189C65.3521 11.8189 65.2783 11.8919 65.2783 11.9821C65.2783 12.0722 65.3521 12.1453 65.4432 12.1453Z" fill="#575988"/>
<path d="M84.9384 12.0971C85.0126 12.0971 85.0727 12.0377 85.0727 11.9643C85.0727 11.8909 85.0126 11.8314 84.9384 11.8314C84.8642 11.8314 84.8041 11.8909 84.8041 11.9643C84.8041 12.0377 84.8642 12.0971 84.9384 12.0971Z" fill="#575988"/>
<path d="M84.9596 12.3995C85.0337 12.3995 85.0939 12.34 85.0939 12.2667C85.0939 12.1933 85.0337 12.1338 84.9596 12.1338C84.8854 12.1338 84.8253 12.1933 84.8253 12.2667C84.8253 12.34 84.8854 12.3995 84.9596 12.3995Z" fill="#575988"/>
<path d="M84.9776 12.7009C85.0518 12.7009 85.1119 12.6414 85.1119 12.568C85.1119 12.4946 85.0518 12.4351 84.9776 12.4351C84.9034 12.4351 84.8433 12.4946 84.8433 12.568C84.8433 12.6414 84.9034 12.7009 84.9776 12.7009Z" fill="#575988"/>
<path opacity="0.1" d="M74.2982 20.8724C74.2781 20.8483 78.9409 26.673 82.5599 23.3071C82.5631 23.3081 76.8448 24.0751 74.2982 20.8724Z" fill="black"/>
<path opacity="0.1" d="M71.6226 23.9003C71.6226 23.9003 74.4125 23.9757 74.7044 24.7698V25.5964C74.6249 25.64 74.5356 25.6628 74.4447 25.6628C74.3539 25.6628 74.2645 25.64 74.1851 25.5964C73.9038 25.4457 72.217 24.5982 71.6226 25.0063V23.9003Z" fill="black"/>
<path d="M71.6744 23.9003C71.6744 23.9003 74.3427 23.9725 74.6219 24.73V25.5168C74.5459 25.5586 74.4603 25.5805 74.3734 25.5805C74.2864 25.5805 74.2009 25.5586 74.1248 25.5168C73.8562 25.3745 72.2434 24.5658 71.6744 24.955V23.9003Z" fill="#3F3D56"/>
<path opacity="0.1" d="M73.1455 17.9072C73.4305 18.5599 73.7938 19.1764 74.2274 19.7434C74.699 20.3702 75.2705 20.9168 75.9195 21.362C75.9195 21.362 73.192 18.286 73.1455 17.9072Z" fill="black"/>
<path opacity="0.1" d="M72.2328 14.7003C72.2328 14.7003 72.6981 16.6883 73.8974 17.3631L72.2328 14.7003Z" fill="black"/>
<path opacity="0.1" d="M71.519 14.9012C71.5073 14.8646 71.1054 16.4706 73.0652 17.3631C73.0652 17.3631 72.2328 17.0838 71.519 14.9012Z" fill="black"/>
<path opacity="0.1" d="M83.7011 13.5683C83.6704 13.5683 84.6677 14.196 84.9395 14.489C84.9395 14.489 84.2901 13.5264 83.7011 13.5683Z" fill="black"/>
<path d="M77.3895 12.1945C77.3898 12.2476 77.4013 12.3 77.4232 12.3485C77.4452 12.397 77.477 12.4405 77.5168 12.4762C77.5565 12.5119 77.6033 12.539 77.6542 12.5559C77.7051 12.5728 77.759 12.579 77.8125 12.5743C78.5623 12.6203 79.3439 12.6527 80.0334 12.365C80.1627 12.3193 80.2789 12.2432 80.3718 12.1432C80.4945 11.9936 80.5188 11.7906 80.5685 11.6044C80.6658 11.2403 80.8731 10.9169 81.0222 10.5706C81.2745 9.98552 81.359 9.34297 81.2665 8.71347C81.247 8.52051 81.1826 8.33464 81.0783 8.17045C80.8794 7.889 80.5167 7.77495 80.2534 7.55104C79.99 7.32714 79.8208 6.985 79.5131 6.81864C79.236 6.66588 78.8965 6.68472 78.5845 6.73703C77.9709 6.84013 77.3828 7.05855 76.8522 7.3805C76.6735 7.48513 76.4778 7.61382 76.2727 7.57511C76.0929 7.54163 75.9618 7.39201 75.8497 7.25181C75.7054 7.58663 75.6449 7.9509 75.673 8.31379C75.6808 8.36704 75.679 8.42124 75.6678 8.47387C75.6419 8.5375 75.6026 8.59494 75.5525 8.64232C75.3674 8.85158 75.2521 9.19162 75.4351 9.40716C75.5144 9.50028 75.6371 9.55154 75.7143 9.64676C75.8528 9.8173 75.8063 10.0653 75.8031 10.2829C75.7955 10.3589 75.8149 10.4351 75.8581 10.4984C75.8981 10.5353 75.9471 10.5614 76.0003 10.574C76.0535 10.5867 76.109 10.5855 76.1616 10.5706C76.2664 10.5394 76.3764 10.5291 76.4853 10.5403C76.5999 10.5772 76.6989 10.6508 76.7666 10.7495C77.1082 11.19 77.2435 11.6692 77.3895 12.1945Z" fill="#2D293D"/>
<g opacity="0.1">
<path opacity="0.1" d="M80.4596 11.958C80.3667 12.058 80.2505 12.1341 80.1212 12.1798C79.4274 12.4654 78.6469 12.433 77.9003 12.3891C77.8201 12.3898 77.7409 12.3723 77.6687 12.3378C77.5545 12.2719 77.5111 12.1338 77.4762 12.0082C77.3303 11.4851 77.196 11.0048 76.8491 10.5685C76.7822 10.4679 76.6832 10.3924 76.5678 10.354C76.4589 10.3439 76.3491 10.3542 76.2442 10.3844C76.1917 10.3994 76.1361 10.4007 76.0829 10.3883C76.0298 10.3758 75.9807 10.3499 75.9406 10.3132C75.8975 10.2499 75.878 10.1737 75.8856 10.0977C75.8856 9.87797 75.9353 9.6321 75.7968 9.46155C75.7196 9.36634 75.5969 9.31507 75.5176 9.22091C75.4659 9.15148 75.4341 9.06948 75.4257 8.98363C75.4174 8.89777 75.4327 8.81127 75.47 8.73334C75.3378 8.94259 75.2818 9.20521 75.4351 9.38517C75.5144 9.47829 75.6371 9.52956 75.7143 9.62477C75.8529 9.79636 75.8063 10.0433 75.8031 10.2609C75.795 10.3368 75.8141 10.4131 75.8571 10.4764C75.8972 10.5135 75.9464 10.5397 75.9997 10.5523C76.0531 10.565 76.1089 10.5637 76.1617 10.5486C76.2664 10.5174 76.3764 10.5071 76.4853 10.5183C76.5999 10.5552 76.6989 10.6288 76.7666 10.7276C77.1124 11.1639 77.2478 11.6431 77.3937 12.1683C77.4108 12.2975 77.4761 12.4158 77.5767 12.5C77.6492 12.5345 77.7289 12.5517 77.8094 12.5502C78.5592 12.5962 79.3407 12.6297 80.0302 12.3409C80.1597 12.2956 80.2759 12.2194 80.3687 12.1191C80.4153 12.0602 80.4511 11.9936 80.4744 11.9224C80.4755 11.936 80.4681 11.9475 80.4596 11.958Z" fill="black"/>
<path opacity="0.1" d="M75.6731 8.41004C75.7063 8.37435 75.7318 8.33234 75.7482 8.28658C75.7577 8.23363 75.7577 8.17944 75.7482 8.12649C75.7275 7.82819 75.7667 7.5288 75.8634 7.24552L75.8497 7.22983C75.705 7.56415 75.6444 7.92819 75.6731 8.29076C75.6762 8.33046 75.6762 8.37034 75.6731 8.41004Z" fill="black"/>
</g>
<path opacity="0.1" d="M76.9506 13.6697C76.9506 13.6697 80.025 14.0736 80.301 13.6164L76.9506 13.6697Z" fill="black"/>
<path opacity="0.1" d="M82.9269 12.4111C82.9269 12.4111 84.636 12.4111 85.0114 13.0472L82.9269 12.4111Z" fill="black"/>
<path d="M92.4883 68.9263C91.9814 69.3746 91.3228 69.6181 90.6429 69.6085C90.4695 69.6085 90.2294 69.6409 90.2283 69.8125C90.2325 69.8628 90.25 69.9112 90.2791 69.9527C90.4937 70.3066 90.8325 70.5699 91.2309 70.6924C91.601 70.8033 91.9966 70.7845 92.3826 70.7646L93.5089 70.7071C93.7204 70.6955 93.9319 70.6851 94.1434 70.6589C94.3549 70.6328 94.5855 70.5899 94.8065 70.5543C95.3496 70.4779 95.8988 70.4527 96.4468 70.479C96.5927 70.4842 96.7641 70.479 96.8508 70.3743C96.9375 70.2697 96.8931 70.0699 96.8603 69.9129C96.7926 69.5896 96.8603 69.2506 96.7979 68.9263C96.6921 68.3571 96.194 67.9208 95.6483 67.7147C95.1407 67.5242 94.2418 67.3056 93.7616 67.6236C93.2551 67.9574 92.9452 68.5151 92.4883 68.9263Z" fill="#3F3D56"/>
<path d="M93.6073 49.8566C93.7067 50.3243 94.1646 50.6822 94.1773 51.1593C94.1889 51.5422 93.9129 51.8634 93.7141 52.1909C93.5267 52.5301 93.3686 52.8843 93.2413 53.2497C92.867 54.2013 92.4024 55.1157 91.8538 55.9806C91.5894 56.3991 91.2933 56.8458 91.3536 57.3324C91.3957 57.5599 91.4769 57.7786 91.5937 57.979L92.3868 59.5379C92.5606 59.8492 92.6965 60.1797 92.7919 60.5225C92.8606 60.8186 92.867 61.1252 92.9072 61.4265C93.032 62.3828 93.4856 63.3454 93.217 64.2724C93.1938 64.3519 93.1113 64.4482 93.0468 64.3927C93.309 64.8771 93.5195 65.3647 93.4994 65.914C93.4888 66.2018 93.4 66.502 93.5068 66.7699C93.5523 66.8818 93.6316 66.9865 93.6305 67.1068C93.6305 67.1863 93.5935 67.2606 93.5851 67.338C93.5628 67.5588 93.768 67.7429 93.9806 67.813C94.1931 67.8831 94.4248 67.8779 94.6394 67.9417C95.0519 68.0641 95.347 68.4157 95.697 68.6595C96.0561 68.9042 96.4794 69.0405 96.9153 69.0518C96.9775 69.0584 97.0402 69.046 97.0951 69.0163C97.1262 68.9894 97.1511 68.9562 97.1683 68.9191C97.1854 68.8819 97.1944 68.8416 97.1945 68.8007C97.2137 68.6053 97.1839 68.4082 97.108 68.2269C97.032 68.0455 96.9121 67.8854 96.7588 67.7607C96.6916 67.7191 96.636 67.6616 96.597 67.5933C96.5772 67.5329 96.5722 67.4687 96.5822 67.406C96.646 66.5485 96.6304 65.6869 96.5356 64.8322C96.4929 64.5613 96.4791 64.2867 96.4944 64.0129C96.5166 63.7848 96.5864 63.5588 96.561 63.3318C96.5356 63.1047 96.4183 62.8976 96.3495 62.6789C96.2268 62.2897 96.2607 61.8712 96.2438 61.4642C96.2226 60.7569 96.0587 60.0621 95.8958 59.3716C95.8313 59.1006 95.7605 58.817 95.5669 58.6162C95.4019 58.4456 95.1354 58.2824 95.1978 58.0553C95.2324 57.9717 95.2839 57.8958 95.3491 57.8325C95.4257 57.7374 95.4818 57.6279 95.5142 57.5106C95.5466 57.3933 95.5544 57.2707 95.5373 57.1503C95.6069 57.1679 95.6804 57.161 95.7454 57.1308C95.8105 57.1007 95.8629 57.0491 95.8937 56.985C97.1818 56.3834 98.2203 55.1801 98.6836 53.8461C98.7109 53.7471 98.7529 53.6526 98.8083 53.5657C98.9279 53.4004 99.1351 53.3293 99.3192 53.2382C99.8966 52.9505 100.295 52.4117 100.661 51.8843C100.873 51.5788 101.084 51.2628 101.179 50.9029C101.229 50.6701 101.253 50.4326 101.25 50.1946L101.283 48.9652C101.29 48.8842 101.282 48.8027 101.26 48.7245C101.228 48.6516 101.183 48.5854 101.125 48.5299C100.774 48.1619 100.312 47.9155 99.8077 47.8268C99.4693 47.7672 99.1235 47.7787 98.7808 47.7505C98.1167 47.696 97.461 47.492 96.7969 47.5412C95.7531 47.6176 94.8235 48.3332 94.3317 49.2477C94.1593 49.57 93.9774 49.8504 93.6073 49.8566Z" fill="#464353"/>
<path d="M87.8118 41.863C87.8259 42.0528 87.8 42.2434 87.7357 42.4228C87.6543 42.5943 87.4502 42.7283 87.2714 42.6582C87.3254 42.5379 87.1826 42.4008 87.0493 42.4154C86.9838 42.4304 86.9229 42.4609 86.8719 42.5042C86.8208 42.5476 86.7812 42.6026 86.7564 42.6645C86.668 42.8402 86.6384 43.0391 86.6718 43.2326C86.7141 43.4732 86.8547 43.7045 86.8177 43.9462C86.7881 44.147 86.639 44.3469 86.7183 44.5331C86.7698 44.6182 86.8344 44.6948 86.9097 44.7602C87.0142 44.8875 87.0654 45.0496 87.0526 45.2132C87.0398 45.3767 86.964 45.5291 86.841 45.639L88.8419 45.6788C88.7689 46.0094 88.9191 46.3474 89.0904 46.6414C89.5703 47.4497 90.2329 48.137 91.0263 48.6495C91.8197 49.162 92.7223 49.4856 93.6634 49.5951C93.6125 49.6244 93.5689 49.6647 93.5356 49.7128C93.5024 49.7609 93.4803 49.8157 93.4711 49.8733C93.4619 49.9309 93.4658 49.9897 93.4824 50.0457C93.499 50.1016 93.5279 50.1532 93.5671 50.1967C93.73 50.3568 94.006 50.3369 94.2102 50.2333C94.4143 50.1297 94.5739 49.9581 94.7601 49.8252C95.0887 49.5949 95.4895 49.4881 95.8906 49.5239C96.1413 49.548 96.3845 49.6285 96.6362 49.6411C97.3765 49.6798 98.0111 49.1525 98.7239 48.9369C99.2431 48.779 99.8322 48.779 100.268 48.4577C100.456 48.3196 100.611 48.0926 100.556 47.8687C100.51 47.74 100.438 47.6221 100.344 47.5224C100.093 47.2012 99.9454 46.8151 99.7656 46.4499C99.4094 45.727 98.919 45.0767 98.3199 44.5331C97.8677 44.1421 97.3885 43.7827 96.8858 43.4575C96.7643 43.3688 96.6347 43.2914 96.4987 43.2263C96.3232 43.1499 96.1286 43.1133 95.9699 43.017C95.7352 42.8706 95.5998 42.6121 95.419 42.4039C95.0224 41.9457 94.4132 41.7353 93.9246 41.3754C93.5968 41.1337 93.307 40.8157 92.9157 40.6995C92.7253 40.642 92.5233 40.6378 92.333 40.5813C91.9004 40.4516 91.5853 40.0718 91.1612 39.9179C90.8259 39.7966 90.4558 39.828 90.1036 39.7851C89.7066 39.7366 89.3274 39.5937 88.9984 39.3686C88.8925 39.2832 88.7736 39.2148 88.6463 39.1657C88.1101 39.0045 88.0667 39.9922 88.0117 40.3344C87.9409 40.8429 87.8118 41.3482 87.8118 41.863Z" fill="#FFF980"/>
<path d="M88.3343 45.1755C88.4241 46.1402 87.6881 47.0746 87.9028 48.0194C87.9482 48.2202 88.036 48.4117 88.0678 48.6157C88.1576 49.1755 87.8192 49.706 87.4967 50.1747L84.7258 54.1977C84.6146 54.3743 84.4817 54.5367 84.3303 54.6811C83.8015 55.1467 83.0062 55.0996 82.3103 55.2377C81.8215 55.3371 81.3599 55.539 80.9567 55.8299C80.9385 55.8438 80.9265 55.8642 80.9234 55.8867C80.9202 55.9091 80.9261 55.932 80.9397 55.9502C81.0546 56.105 81.2068 56.2289 81.3825 56.3106C81.5582 56.3923 81.7517 56.4292 81.9455 56.4179C82.0185 56.5121 81.9455 56.6523 81.845 56.7203C81.6969 56.8249 81.4918 56.849 81.4622 57.0991C81.4522 57.186 81.4699 57.2738 81.5129 57.3502C81.6249 57.5188 81.7985 57.638 81.9973 57.6829C82.9565 57.9737 83.9929 57.4632 84.711 56.7695C85.4291 56.0758 85.9442 55.2 86.6485 54.4948C87.0387 54.1035 87.4819 53.7698 87.8837 53.391C88.6854 52.6345 89.3093 51.7169 89.91 50.7973C90.0909 50.52 90.2738 50.2354 90.3489 49.9142C90.424 49.593 90.3891 49.2676 90.4748 48.9568C90.5869 48.5498 90.8883 48.2244 91.1389 47.8833C91.6307 47.2137 91.9596 46.3945 91.894 45.569C91.8285 44.7434 91.3124 43.9294 90.5255 43.649C90.2815 43.5531 90.0128 43.5369 89.7588 43.603C89.4362 43.7013 89.1983 43.965 88.9783 44.2182L88.4495 44.8188C88.3208 44.9518 88.2198 45.1085 88.1524 45.2802C88.1183 45.3666 88.1101 45.461 88.1289 45.5519C88.1476 45.6429 88.1925 45.7265 88.2581 45.7929" fill="#FBBEBE"/>
<path d="M89.7387 41.2185C89.3749 41.2394 88.9741 41.275 88.7171 41.5324C88.6093 41.6505 88.5221 41.7856 88.459 41.932C88.2095 42.4353 87.9662 42.9616 87.9482 43.5224C87.9334 43.9702 88.0646 44.4086 88.1333 44.8512C88.1904 45.2195 88.0455 45.5951 88.018 45.9676C88.4696 45.8305 89.0661 45.6443 89.4754 45.413C89.7546 45.255 90.0243 45.0751 90.3288 44.9746C90.7635 44.8313 91.4922 45.0793 91.9057 45.2781C91.9279 44.9914 91.71 44.4913 91.7333 44.2035C91.7365 44.0824 91.7583 43.9625 91.7978 43.8478C91.8597 43.7265 91.933 43.6112 92.0167 43.5036C92.1741 43.2504 92.2465 42.9544 92.2235 42.658C92.2006 42.3616 92.0834 42.08 91.8888 41.8536C91.5218 41.4455 90.9475 41.2928 90.3997 41.2258C90.0547 41.1862 89.707 41.1743 89.3601 41.1902" fill="#FFF980"/>
<defs>
<linearGradient id="paint0_linear" x1="74.6874" y1="57.1461" x2="74.6874" y2="6.01825" gradientUnits="userSpaceOnUse">
<stop stop-color="#808080" stop-opacity="0.25"/>
<stop offset="0.54" stop-color="#808080" stop-opacity="0.12"/>
<stop offset="1" stop-color="#808080" stop-opacity="0.1"/>
</linearGradient>
</defs>
</svg>
