<svg width="406" height="406" viewBox="0 0 406 406" fill="none" xmlns="http://www.w3.org/2000/svg">
<circle cx="203" cy="203" r="203" fill="#3F3D56"/>
<mask id="mask0" mask-type="alpha" maskUnits="userSpaceOnUse" x="0" y="0" width="406" height="406">
<circle cx="203" cy="203" r="203" fill="#3F3D56"/>
</mask>
<g mask="url(#mask0)">
<path d="M256 429L98 314.5H305V93L438.5 194L453 414.5L256 429Z" fill="#47455C" stroke="#4E4A72"/>
</g>
<g clip-path="url(#clip0)">
<path d="M97.8333 311.167V157.325H308.167V311.167C308.167 314.918 305.085 318 301.333 318H104.667C100.915 318 97.8333 314.918 97.8333 311.167Z" fill="#F2F2F2" stroke="#FF8841" stroke-width="6"/>
<path d="M301.333 85H104.667C99.2582 85 94.8333 89.425 94.8333 94.8334V129.25H311.167V94.8334C311.167 89.425 306.742 85 301.333 85Z" fill="#FF8841"/>
<path d="M311.167 159.242V188.25C307.233 191.2 302.317 192.675 297.4 192.675C284.125 192.675 273.8 182.35 273.8 169.075C273.8 181.858 262.983 192.675 250.2 192.675C237.417 192.675 226.6 182.35 226.6 169.075C226.6 181.858 215.783 192.675 203 192.675C190.217 192.675 179.4 182.35 179.4 169.075C179.4 181.858 169.075 192.675 155.8 192.675C142.525 192.675 132.2 182.35 132.2 169.075C132.2 181.858 121.384 192.675 108.6 192.675C103.192 192.675 98.767 191.2 94.8337 188.25V159.242H311.167Z" fill="#E4EAEF"/>
<path d="M132.2 154.325H85L94.8334 129.25H138.1L132.2 154.325Z" fill="#FB9D64"/>
<path d="M179.4 154.325H132.2L138.1 129.25H181.367L179.4 154.325Z" fill="#CDD6E0"/>
<path d="M226.6 154.325H179.4L181.367 129.25H224.633L226.6 154.325Z" fill="#FB9D64"/>
<path d="M273.8 154.325H226.6L224.633 129.25H267.9L273.8 154.325Z" fill="#CDD6E0"/>
<path d="M321 154.325H273.8L267.9 129.25H311.167L321 154.325Z" fill="#FB9D64"/>
<path d="M132.2 164.65C132.2 177.925 142.525 188.25 155.8 188.25C169.075 188.25 179.4 177.925 179.4 164.65V154.325H132.2V164.65Z" fill="#ACB3BA"/>
<path d="M226.6 154.325V164.65C226.6 177.925 236.925 188.25 250.2 188.25C263.475 188.25 273.8 177.925 273.8 164.65V154.325H226.6Z" fill="#ACB3BA"/>
<path d="M85 164.65C85 177.925 95.3251 188.25 108.6 188.25C121.875 188.25 132.2 177.925 132.2 164.65V154.325H85V164.65Z" fill="#FF8841"/>
<path d="M179.4 164.65C179.4 177.925 189.725 188.25 203 188.25C216.275 188.25 226.6 177.925 226.6 164.65V154.325H179.4V164.65Z" fill="#FF8841"/>
<path d="M273.8 154.325V164.65C273.8 177.925 284.125 188.25 297.4 188.25C310.675 188.25 321 177.925 321 164.65V154.325H273.8Z" fill="#FF8841"/>
<path d="M130.799 98.4501H142.519C142.666 98.4501 142.793 98.5035 142.899 98.6101C143.006 98.7168 143.059 98.8435 143.059 98.9901V102.21C143.059 102.357 143.006 102.483 142.899 102.59C142.793 102.697 142.666 102.75 142.519 102.75H139.199V111.91C139.199 112.057 139.146 112.183 139.039 112.29C138.933 112.397 138.806 112.45 138.659 112.45H134.659C134.513 112.45 134.386 112.397 134.279 112.29C134.173 112.183 134.119 112.057 134.119 111.91V102.75H130.799C130.653 102.75 130.526 102.697 130.419 102.59C130.313 102.483 130.259 102.357 130.259 102.21V98.9901C130.259 98.8435 130.313 98.7168 130.419 98.6101C130.526 98.5035 130.653 98.4501 130.799 98.4501ZM153.263 107.93V106.57C153.263 105.05 153.803 103.883 154.883 103.07C155.963 102.257 157.357 101.85 159.063 101.85C160.77 101.85 162.163 102.257 163.243 103.07C164.323 103.883 164.863 105.05 164.863 106.57V107.93C164.863 109.463 164.343 110.637 163.303 111.45C162.263 112.25 160.85 112.65 159.063 112.65C157.277 112.65 155.863 112.25 154.823 111.45C153.783 110.637 153.263 109.463 153.263 107.93ZM159.963 108.09V106.41C159.963 105.903 159.897 105.55 159.763 105.35C159.63 105.15 159.397 105.05 159.063 105.05C158.73 105.05 158.497 105.15 158.363 105.35C158.23 105.55 158.163 105.903 158.163 106.41V108.09C158.163 108.623 158.23 108.983 158.363 109.17C158.497 109.357 158.73 109.45 159.063 109.45C159.397 109.45 159.63 109.35 159.763 109.15C159.897 108.95 159.963 108.597 159.963 108.09ZM180.051 98.7901V105.27L181.811 102.39C181.944 102.163 182.138 102.05 182.391 102.05H186.431C186.564 102.05 186.678 102.097 186.771 102.19C186.864 102.283 186.911 102.39 186.911 102.51C186.911 102.63 186.878 102.737 186.811 102.83L184.071 106.73L187.311 111.71C187.364 111.79 187.391 111.89 187.391 112.01C187.391 112.117 187.344 112.217 187.251 112.31C187.158 112.403 187.044 112.45 186.911 112.45H182.711C182.444 112.45 182.238 112.337 182.091 112.11L180.051 108.71V111.91C180.051 112.057 179.998 112.183 179.891 112.29C179.784 112.397 179.658 112.45 179.511 112.45H176.011C175.864 112.45 175.738 112.397 175.631 112.29C175.524 112.183 175.471 112.057 175.471 111.91V98.7901C175.471 98.6435 175.524 98.5168 175.631 98.4101C175.738 98.3035 175.864 98.2501 176.011 98.2501H179.511C179.658 98.2501 179.784 98.3035 179.891 98.4101C179.998 98.5168 180.051 98.6435 180.051 98.7901ZM197.196 107.93V106.57C197.196 105.05 197.736 103.883 198.816 103.07C199.896 102.257 201.289 101.85 202.996 101.85C204.703 101.85 206.096 102.257 207.176 103.07C208.256 103.883 208.796 105.05 208.796 106.57V107.93C208.796 109.463 208.276 110.637 207.236 111.45C206.196 112.25 204.783 112.65 202.996 112.65C201.209 112.65 199.796 112.25 198.756 111.45C197.716 110.637 197.196 109.463 197.196 107.93ZM203.896 108.09V106.41C203.896 105.903 203.829 105.55 203.696 105.35C203.563 105.15 203.329 105.05 202.996 105.05C202.663 105.05 202.429 105.15 202.296 105.35C202.163 105.55 202.096 105.903 202.096 106.41V108.09C202.096 108.623 202.163 108.983 202.296 109.17C202.429 109.357 202.663 109.45 202.996 109.45C203.329 109.45 203.563 109.35 203.696 109.15C203.829 108.95 203.896 108.597 203.896 108.09ZM219.544 98.4501H231.264C231.411 98.4501 231.537 98.5035 231.644 98.6101C231.751 98.7168 231.804 98.8435 231.804 98.9901V102.21C231.804 102.357 231.751 102.483 231.644 102.59C231.537 102.697 231.411 102.75 231.264 102.75H227.944V111.91C227.944 112.057 227.891 112.183 227.784 112.29C227.677 112.397 227.551 112.45 227.404 112.45H223.404C223.257 112.45 223.131 112.397 223.024 112.29C222.917 112.183 222.864 112.057 222.864 111.91V102.75H219.544C219.397 102.75 219.271 102.697 219.164 102.59C219.057 102.483 219.004 102.357 219.004 102.21V98.9901C219.004 98.8435 219.057 98.7168 219.164 98.6101C219.271 98.5035 219.397 98.4501 219.544 98.4501ZM242.008 107.93V106.57C242.008 105.05 242.548 103.883 243.628 103.07C244.708 102.257 246.101 101.85 247.808 101.85C249.514 101.85 250.908 102.257 251.988 103.07C253.068 103.883 253.608 105.05 253.608 106.57V107.93C253.608 109.463 253.088 110.637 252.048 111.45C251.008 112.25 249.594 112.65 247.808 112.65C246.021 112.65 244.608 112.25 243.568 111.45C242.528 110.637 242.008 109.463 242.008 107.93ZM248.708 108.09V106.41C248.708 105.903 248.641 105.55 248.508 105.35C248.374 105.15 248.141 105.05 247.808 105.05C247.474 105.05 247.241 105.15 247.108 105.35C246.974 105.55 246.908 105.903 246.908 106.41V108.09C246.908 108.623 246.974 108.983 247.108 109.17C247.241 109.357 247.474 109.45 247.808 109.45C248.141 109.45 248.374 109.35 248.508 109.15C248.641 108.95 248.708 108.597 248.708 108.09ZM268.796 98.7901V105.27L270.556 102.39C270.689 102.163 270.882 102.05 271.136 102.05H275.176C275.309 102.05 275.422 102.097 275.516 102.19C275.609 102.283 275.656 102.39 275.656 102.51C275.656 102.63 275.622 102.737 275.556 102.83L272.816 106.73L276.056 111.71C276.109 111.79 276.136 111.89 276.136 112.01C276.136 112.117 276.089 112.217 275.996 112.31C275.902 112.403 275.789 112.45 275.656 112.45H271.456C271.189 112.45 270.982 112.337 270.836 112.11L268.796 108.71V111.91C268.796 112.057 268.742 112.183 268.636 112.29C268.529 112.397 268.402 112.45 268.256 112.45H264.756C264.609 112.45 264.482 112.397 264.376 112.29C264.269 112.183 264.216 112.057 264.216 111.91V98.7901C264.216 98.6435 264.269 98.5168 264.376 98.4101C264.482 98.3035 264.609 98.2501 264.756 98.2501H268.256C268.402 98.2501 268.529 98.3035 268.636 98.4101C268.742 98.5168 268.796 98.6435 268.796 98.7901Z" fill="white"/>
<ellipse cx="160.448" cy="228.652" rx="25.3504" ry="25.3504" fill="white"/>
<mask id="mask1" mask-type="alpha" maskUnits="userSpaceOnUse" x="145" y="213" width="31" height="31">
<ellipse cx="160.447" cy="228.652" rx="15.0895" ry="15.0895" fill="#FF8841"/>
</mask>
<g mask="url(#mask1)">
<ellipse cx="161.051" cy="228.652" rx="16.2967" ry="16.2967" fill="#FF8841"/>
<ellipse cx="172.217" cy="236.197" rx="8.75192" ry="8.75191" fill="white"/>
</g>
<circle cx="241.931" cy="231.67" r="25.3504" fill="white"/>
<mask id="mask2" mask-type="alpha" maskUnits="userSpaceOnUse" x="226" y="216" width="32" height="31">
<ellipse cx="241.931" cy="231.67" rx="15.0895" ry="15.0895" fill="#FF8841"/>
</mask>
<g mask="url(#mask2)">
<ellipse cx="242.534" cy="231.67" rx="16.2967" ry="16.2967" fill="#FF8841"/>
<ellipse cx="253.701" cy="239.215" rx="8.75192" ry="8.75191" fill="white"/>
</g>
<path d="M148 279C189.786 298.863 213.216 299.137 255 279" stroke="#FF8841" stroke-width="5"/>
</g>
<defs>
<clipPath id="clip0">
<rect width="236" height="236" fill="white" transform="translate(85 85)"/>
</clipPath>
</defs>
</svg>
